%
M48
M72
T01C0.0150
T02C0.0400
T03C0.0730
T04C0.1300
%
T01
X15333Y6000
X17483Y6650
X19183Y6650
X21833Y7000
X21833Y8000
X22583Y8500
X22133Y9100
X22333Y9500
X21333Y10500
X23068Y11115
X21783Y12000
X20333Y13000
X15533Y10450
X14783Y9450
X14333Y9300
X16933Y9250
X18333Y9500
X19333Y9500
X18683Y8950
X19233Y8550
X19383Y8000
X19833Y8000
X17183Y8000
X16183Y8000
X18833Y5500
X17833Y5000
X19833Y5000
X20833Y5000
X13833Y12150
T02
X15333Y4500
X16333Y4500
X17333Y4500
X18333Y4500
X19333Y4500
X20333Y4500
X21333Y4500
T03
X20933Y11550
X15733Y11550
T04
X14333Y13000
X22333Y13000
M30
