G75*
%MOIN*%
%OFA0B0*%
%FSLAX25Y25*%
%IPPOS*%
%LPD*%
%AMOC8*
5,1,8,0,0,1.08239X$1,22.5*
%
%ADD10R,0.07874X0.04724*%
%ADD11R,0.05315X0.02362*%
%ADD12R,0.04331X0.03937*%
%ADD13R,0.02500X0.05000*%
%ADD14C,0.02500*%
%ADD15C,0.07400*%
%ADD16R,0.07874X0.19685*%
%ADD17R,0.06693X0.15748*%
%ADD18R,0.01969X0.03150*%
%ADD19R,0.00000X0.00000*%
%ADD20R,0.10950X0.10950*%
%ADD21C,0.00800*%
%ADD22C,0.02900*%
D10*
X0138865Y0078976D03*
X0138865Y0101024D03*
X0227802Y0101024D03*
X0227802Y0078976D03*
D11*
X0213333Y0084094D03*
X0213333Y0088031D03*
X0213333Y0091969D03*
X0213333Y0095906D03*
X0153333Y0095906D03*
X0153333Y0091969D03*
X0153333Y0088031D03*
X0153333Y0084094D03*
D12*
X0162487Y0085000D03*
X0169180Y0085000D03*
X0169180Y0075000D03*
X0162487Y0075000D03*
X0162487Y0065000D03*
X0169180Y0065000D03*
X0197487Y0065000D03*
X0204180Y0065000D03*
X0204180Y0075000D03*
X0197487Y0075000D03*
X0197487Y0085000D03*
X0204180Y0085000D03*
X0219987Y0107500D03*
X0226680Y0107500D03*
X0226680Y0115000D03*
X0219987Y0115000D03*
X0146680Y0115000D03*
X0139987Y0115000D03*
X0139987Y0107500D03*
X0146680Y0107500D03*
D13*
X0180133Y0062500D03*
X0183333Y0062500D03*
X0186533Y0062500D03*
D14*
X0138333Y0045000D03*
X0210833Y0137000D03*
D15*
X0213333Y0045000D03*
X0203333Y0045000D03*
X0193333Y0045000D03*
X0183333Y0045000D03*
X0173333Y0045000D03*
X0163333Y0045000D03*
X0153333Y0045000D03*
D16*
X0203609Y0099000D03*
D17*
X0163648Y0099000D03*
D18*
X0177034Y0081831D03*
X0180184Y0081831D03*
X0183333Y0081831D03*
X0186483Y0081831D03*
X0189633Y0081831D03*
X0189633Y0073169D03*
X0186483Y0073169D03*
X0183333Y0073169D03*
X0180184Y0073169D03*
X0177034Y0073169D03*
D19*
X0183333Y0077500D03*
D20*
X0157333Y0115500D03*
X0209333Y0115500D03*
D21*
X0135333Y0075014D02*
X0135333Y0042000D01*
X0149209Y0042000D01*
X0148971Y0042327D01*
X0148607Y0043042D01*
X0148359Y0043806D01*
X0148233Y0044599D01*
X0148233Y0044600D01*
X0152933Y0044600D01*
X0152933Y0045400D01*
X0148233Y0045400D01*
X0148233Y0045401D01*
X0148359Y0046194D01*
X0148607Y0046958D01*
X0148971Y0047673D01*
X0149443Y0048322D01*
X0150011Y0048890D01*
X0150660Y0049362D01*
X0151376Y0049726D01*
X0152139Y0049974D01*
X0152932Y0050100D01*
X0152933Y0050100D01*
X0152933Y0045400D01*
X0153733Y0045400D01*
X0153733Y0050100D01*
X0153735Y0050100D01*
X0154528Y0049974D01*
X0155291Y0049726D01*
X0156006Y0049362D01*
X0156656Y0048890D01*
X0157223Y0048322D01*
X0157695Y0047673D01*
X0158060Y0046958D01*
X0158213Y0046487D01*
X0158840Y0048002D01*
X0160331Y0049493D01*
X0161333Y0049908D01*
X0161333Y0055000D01*
X0150505Y0055000D01*
X0149333Y0056172D01*
X0142333Y0063172D01*
X0142333Y0075014D01*
X0135333Y0075014D01*
X0135333Y0074336D02*
X0142333Y0074336D01*
X0142333Y0073537D02*
X0135333Y0073537D01*
X0135333Y0072739D02*
X0142333Y0072739D01*
X0142333Y0071940D02*
X0135333Y0071940D01*
X0135333Y0071142D02*
X0142333Y0071142D01*
X0142333Y0070343D02*
X0135333Y0070343D01*
X0135333Y0069545D02*
X0142333Y0069545D01*
X0142333Y0068746D02*
X0135333Y0068746D01*
X0135333Y0067948D02*
X0142333Y0067948D01*
X0142333Y0067149D02*
X0135333Y0067149D01*
X0135333Y0066351D02*
X0142333Y0066351D01*
X0142333Y0065552D02*
X0135333Y0065552D01*
X0135333Y0064754D02*
X0142333Y0064754D01*
X0142333Y0063955D02*
X0135333Y0063955D01*
X0135333Y0063157D02*
X0142348Y0063157D01*
X0143147Y0062358D02*
X0135333Y0062358D01*
X0135333Y0061560D02*
X0143945Y0061560D01*
X0144744Y0060761D02*
X0135333Y0060761D01*
X0135333Y0059963D02*
X0145542Y0059963D01*
X0146341Y0059164D02*
X0135333Y0059164D01*
X0135333Y0058366D02*
X0147139Y0058366D01*
X0147938Y0057567D02*
X0135333Y0057567D01*
X0135333Y0056769D02*
X0148736Y0056769D01*
X0149535Y0055970D02*
X0135333Y0055970D01*
X0135333Y0055172D02*
X0150333Y0055172D01*
X0151333Y0057000D02*
X0163333Y0057000D01*
X0181333Y0057000D01*
X0183333Y0059000D01*
X0183333Y0062500D01*
X0180133Y0062500D02*
X0173333Y0062500D01*
X0172333Y0061500D01*
X0166833Y0061500D01*
X0165833Y0062500D01*
X0165833Y0064500D01*
X0165333Y0065000D01*
X0162487Y0065000D01*
X0169180Y0065000D02*
X0169180Y0068154D01*
X0167333Y0070000D01*
X0159833Y0070000D01*
X0158333Y0071500D01*
X0158333Y0083000D01*
X0157239Y0084094D01*
X0153333Y0084094D01*
X0157498Y0086094D02*
X0157591Y0086188D01*
X0157591Y0088914D01*
X0158333Y0088172D01*
X0158333Y0088172D01*
X0159013Y0087492D01*
X0158922Y0087153D01*
X0158922Y0085400D01*
X0162087Y0085400D01*
X0162087Y0084600D01*
X0162887Y0084600D01*
X0162887Y0081631D01*
X0163833Y0081631D01*
X0163833Y0078368D01*
X0162887Y0078368D01*
X0162887Y0075400D01*
X0162087Y0075400D01*
X0162087Y0078368D01*
X0160333Y0078368D01*
X0160333Y0081631D01*
X0162087Y0081631D01*
X0162087Y0084600D01*
X0159562Y0084600D01*
X0159162Y0085000D01*
X0158067Y0086094D01*
X0157498Y0086094D01*
X0157591Y0086314D02*
X0158922Y0086314D01*
X0158922Y0087112D02*
X0157591Y0087112D01*
X0157591Y0087911D02*
X0158594Y0087911D01*
X0157796Y0088709D02*
X0157591Y0088709D01*
X0160333Y0089000D02*
X0165833Y0089000D01*
X0172333Y0089000D01*
X0173333Y0090000D01*
X0173333Y0100000D01*
X0203333Y0130000D01*
X0203333Y0125000D02*
X0212833Y0125000D01*
X0217833Y0120000D01*
X0219987Y0117846D01*
X0219987Y0115000D01*
X0226680Y0115000D02*
X0226680Y0111155D01*
X0230679Y0111155D01*
X0226680Y0111155D02*
X0226680Y0107500D01*
X0219987Y0107500D02*
X0215833Y0107500D01*
X0213333Y0105000D01*
X0202258Y0110443D02*
X0199009Y0110443D01*
X0198072Y0109505D01*
X0198072Y0101000D01*
X0186505Y0101000D01*
X0185333Y0099828D01*
X0183555Y0098050D01*
X0182727Y0098050D01*
X0181606Y0097586D01*
X0180748Y0096728D01*
X0180283Y0095607D01*
X0180283Y0094393D01*
X0180748Y0093272D01*
X0181606Y0092414D01*
X0182535Y0092030D01*
X0181333Y0090828D01*
X0181333Y0084805D01*
X0180276Y0084805D01*
X0180276Y0081923D01*
X0180092Y0081923D01*
X0180092Y0084805D01*
X0179034Y0084805D01*
X0179034Y0097872D01*
X0202258Y0121097D01*
X0202258Y0110443D01*
X0202258Y0111068D02*
X0192229Y0111068D01*
X0193028Y0111866D02*
X0202258Y0111866D01*
X0202258Y0112665D02*
X0193826Y0112665D01*
X0194625Y0113463D02*
X0202258Y0113463D01*
X0202258Y0114262D02*
X0195423Y0114262D01*
X0196222Y0115060D02*
X0202258Y0115060D01*
X0202258Y0115859D02*
X0197020Y0115859D01*
X0197819Y0116657D02*
X0202258Y0116657D01*
X0202258Y0117456D02*
X0198617Y0117456D01*
X0199416Y0118254D02*
X0202258Y0118254D01*
X0202258Y0119053D02*
X0200214Y0119053D01*
X0201013Y0119851D02*
X0202258Y0119851D01*
X0202258Y0120650D02*
X0201811Y0120650D01*
X0203333Y0125000D02*
X0177034Y0098701D01*
X0177034Y0081831D01*
X0174450Y0081523D02*
X0172099Y0081523D01*
X0172008Y0081431D02*
X0172945Y0082369D01*
X0172945Y0087000D01*
X0173162Y0087000D01*
X0174333Y0088172D01*
X0175034Y0088872D01*
X0175034Y0084652D01*
X0174450Y0084068D01*
X0174450Y0079593D01*
X0175387Y0078656D01*
X0178681Y0078656D01*
X0178909Y0078884D01*
X0179015Y0078856D01*
X0180092Y0078856D01*
X0180092Y0081738D01*
X0180276Y0081738D01*
X0180276Y0078856D01*
X0181333Y0078856D01*
X0181333Y0078672D01*
X0182333Y0077672D01*
X0182505Y0077500D01*
X0182505Y0077500D01*
X0181833Y0076828D01*
X0181333Y0077328D01*
X0180162Y0078500D01*
X0174005Y0078500D01*
X0172945Y0077440D01*
X0172945Y0077631D01*
X0172008Y0078568D01*
X0167833Y0078568D01*
X0167833Y0081431D01*
X0172008Y0081431D01*
X0172897Y0082321D02*
X0174450Y0082321D01*
X0174450Y0083120D02*
X0172945Y0083120D01*
X0172945Y0083918D02*
X0174450Y0083918D01*
X0175034Y0084717D02*
X0172945Y0084717D01*
X0172945Y0085515D02*
X0175034Y0085515D01*
X0175034Y0086314D02*
X0172945Y0086314D01*
X0173274Y0087112D02*
X0175034Y0087112D01*
X0175034Y0087911D02*
X0174072Y0087911D01*
X0174871Y0088709D02*
X0175034Y0088709D01*
X0179034Y0088709D02*
X0181333Y0088709D01*
X0181333Y0087911D02*
X0179034Y0087911D01*
X0179034Y0087112D02*
X0181333Y0087112D01*
X0181333Y0086314D02*
X0179034Y0086314D01*
X0179034Y0085515D02*
X0181333Y0085515D01*
X0180276Y0084717D02*
X0180092Y0084717D01*
X0180092Y0083918D02*
X0180276Y0083918D01*
X0180276Y0083120D02*
X0180092Y0083120D01*
X0180092Y0082321D02*
X0180276Y0082321D01*
X0180276Y0081523D02*
X0180092Y0081523D01*
X0180092Y0080724D02*
X0180276Y0080724D01*
X0180276Y0079926D02*
X0180092Y0079926D01*
X0180092Y0079127D02*
X0180276Y0079127D01*
X0180333Y0078329D02*
X0181676Y0078329D01*
X0181132Y0077530D02*
X0182475Y0077530D01*
X0184333Y0078500D02*
X0192333Y0078500D01*
X0193833Y0080000D01*
X0196883Y0079926D02*
X0219833Y0079926D01*
X0219833Y0079328D02*
X0217505Y0077000D01*
X0207945Y0077000D01*
X0207945Y0077631D01*
X0207008Y0078568D01*
X0201352Y0078568D01*
X0200833Y0078050D01*
X0200315Y0078568D01*
X0196542Y0078568D01*
X0196883Y0079393D01*
X0196883Y0080607D01*
X0196542Y0081431D01*
X0200315Y0081431D01*
X0200975Y0082091D01*
X0201155Y0081911D01*
X0201474Y0081727D01*
X0201830Y0081631D01*
X0203780Y0081631D01*
X0203780Y0084600D01*
X0204580Y0084600D01*
X0204580Y0085400D01*
X0207745Y0085400D01*
X0207745Y0087153D01*
X0207650Y0087509D01*
X0207622Y0087557D01*
X0208209Y0087557D01*
X0209076Y0088425D01*
X0209076Y0086188D01*
X0209399Y0085864D01*
X0209371Y0085816D01*
X0209276Y0085460D01*
X0209276Y0084285D01*
X0213143Y0084285D01*
X0213143Y0083904D01*
X0213524Y0083904D01*
X0213524Y0084285D01*
X0217391Y0084285D01*
X0217391Y0085460D01*
X0217295Y0085816D01*
X0217267Y0085864D01*
X0217435Y0086031D01*
X0219473Y0086031D01*
X0219833Y0085672D01*
X0219833Y0079328D01*
X0219632Y0079127D02*
X0196773Y0079127D01*
X0196835Y0080724D02*
X0219833Y0080724D01*
X0219833Y0081523D02*
X0216209Y0081523D01*
X0216175Y0081513D02*
X0216531Y0081609D01*
X0216850Y0081793D01*
X0217111Y0082054D01*
X0217295Y0082373D01*
X0217391Y0082729D01*
X0217391Y0083904D01*
X0213524Y0083904D01*
X0213524Y0081513D01*
X0216175Y0081513D01*
X0217265Y0082321D02*
X0219833Y0082321D01*
X0219833Y0083120D02*
X0217391Y0083120D01*
X0217391Y0084717D02*
X0219833Y0084717D01*
X0219833Y0085515D02*
X0217376Y0085515D01*
X0219833Y0083918D02*
X0213524Y0083918D01*
X0213143Y0083918D02*
X0207745Y0083918D01*
X0207745Y0084600D02*
X0207745Y0082847D01*
X0207650Y0082491D01*
X0207465Y0082172D01*
X0207205Y0081911D01*
X0206886Y0081727D01*
X0206529Y0081631D01*
X0204580Y0081631D01*
X0204580Y0084600D01*
X0207745Y0084600D01*
X0207745Y0085515D02*
X0209291Y0085515D01*
X0209276Y0084717D02*
X0204580Y0084717D01*
X0204580Y0083918D02*
X0203780Y0083918D01*
X0203780Y0083120D02*
X0204580Y0083120D01*
X0204580Y0082321D02*
X0203780Y0082321D01*
X0200406Y0081523D02*
X0210457Y0081523D01*
X0210492Y0081513D02*
X0213143Y0081513D01*
X0213143Y0083904D01*
X0209276Y0083904D01*
X0209276Y0082729D01*
X0209371Y0082373D01*
X0209556Y0082054D01*
X0209816Y0081793D01*
X0210135Y0081609D01*
X0210492Y0081513D01*
X0209401Y0082321D02*
X0207552Y0082321D01*
X0207745Y0083120D02*
X0209276Y0083120D01*
X0213143Y0083120D02*
X0213524Y0083120D01*
X0213524Y0082321D02*
X0213143Y0082321D01*
X0213143Y0081523D02*
X0213524Y0081523D01*
X0218833Y0078329D02*
X0207248Y0078329D01*
X0207945Y0077530D02*
X0218035Y0077530D01*
X0218333Y0075000D02*
X0221833Y0078500D01*
X0221833Y0085000D01*
X0221833Y0086500D01*
X0220302Y0088031D01*
X0213333Y0088031D01*
X0213302Y0088000D01*
X0209076Y0087911D02*
X0208562Y0087911D01*
X0209076Y0087112D02*
X0207745Y0087112D01*
X0207745Y0086314D02*
X0209076Y0086314D01*
X0213333Y0091969D02*
X0220365Y0091969D01*
X0221333Y0091000D01*
X0223333Y0095000D02*
X0222428Y0095906D01*
X0213333Y0095906D01*
X0203609Y0099000D02*
X0187333Y0099000D01*
X0183333Y0095000D01*
X0180283Y0095097D02*
X0179034Y0095097D01*
X0179034Y0094299D02*
X0180322Y0094299D01*
X0180653Y0093500D02*
X0179034Y0093500D01*
X0179034Y0092702D02*
X0181318Y0092702D01*
X0182408Y0091903D02*
X0179034Y0091903D01*
X0179034Y0091105D02*
X0181610Y0091105D01*
X0181333Y0090306D02*
X0179034Y0090306D01*
X0179034Y0089508D02*
X0181333Y0089508D01*
X0183333Y0090000D02*
X0188333Y0095000D01*
X0193333Y0095000D01*
X0184595Y0099090D02*
X0180252Y0099090D01*
X0181050Y0099888D02*
X0185393Y0099888D01*
X0186192Y0100687D02*
X0181849Y0100687D01*
X0182647Y0101485D02*
X0198072Y0101485D01*
X0198072Y0102284D02*
X0183446Y0102284D01*
X0184244Y0103082D02*
X0198072Y0103082D01*
X0198072Y0103881D02*
X0185043Y0103881D01*
X0185841Y0104679D02*
X0198072Y0104679D01*
X0198072Y0105478D02*
X0186640Y0105478D01*
X0187438Y0106276D02*
X0198072Y0106276D01*
X0198072Y0107075D02*
X0188237Y0107075D01*
X0189035Y0107873D02*
X0198072Y0107873D01*
X0198072Y0108672D02*
X0189834Y0108672D01*
X0190632Y0109470D02*
X0198072Y0109470D01*
X0198836Y0110269D02*
X0191431Y0110269D01*
X0169333Y0107500D02*
X0169333Y0092500D01*
X0165833Y0089000D02*
X0165833Y0085000D01*
X0169180Y0085000D01*
X0165833Y0085000D02*
X0165833Y0072500D01*
X0166833Y0071500D01*
X0168833Y0071500D01*
X0170833Y0069500D01*
X0176333Y0069500D01*
X0177034Y0070201D01*
X0177034Y0073169D01*
X0180184Y0073169D02*
X0180184Y0075650D01*
X0179333Y0076500D01*
X0174833Y0076500D01*
X0173333Y0075000D01*
X0169180Y0075000D01*
X0172945Y0077530D02*
X0173035Y0077530D01*
X0172248Y0078329D02*
X0173833Y0078329D01*
X0174916Y0079127D02*
X0167833Y0079127D01*
X0167833Y0079926D02*
X0174450Y0079926D01*
X0174450Y0080724D02*
X0167833Y0080724D01*
X0163833Y0080724D02*
X0160333Y0080724D01*
X0160333Y0079926D02*
X0163833Y0079926D01*
X0163833Y0079127D02*
X0160333Y0079127D01*
X0162087Y0078329D02*
X0162887Y0078329D01*
X0162887Y0077530D02*
X0162087Y0077530D01*
X0162087Y0076732D02*
X0162887Y0076732D01*
X0162887Y0075933D02*
X0162087Y0075933D01*
X0163833Y0081523D02*
X0160333Y0081523D01*
X0162087Y0082321D02*
X0162887Y0082321D01*
X0162887Y0083120D02*
X0162087Y0083120D01*
X0162087Y0083918D02*
X0162887Y0083918D01*
X0162087Y0084717D02*
X0159445Y0084717D01*
X0158922Y0085515D02*
X0158647Y0085515D01*
X0160333Y0089000D02*
X0157365Y0091969D01*
X0153333Y0091969D01*
X0149302Y0091969D01*
X0144333Y0087000D01*
X0144333Y0064000D01*
X0151333Y0057000D01*
X0153333Y0060000D02*
X0146833Y0066500D01*
X0146833Y0086500D01*
X0148365Y0088031D01*
X0153333Y0088031D01*
X0148473Y0093968D02*
X0146019Y0091514D01*
X0146383Y0092393D01*
X0146383Y0093607D01*
X0146333Y0093727D01*
X0146333Y0103931D01*
X0149508Y0103931D01*
X0150445Y0104869D01*
X0150445Y0105500D01*
X0154162Y0105500D01*
X0155162Y0106500D01*
X0158902Y0106500D01*
X0158902Y0099400D01*
X0163248Y0099400D01*
X0163248Y0098600D01*
X0158902Y0098600D01*
X0158902Y0093260D01*
X0158193Y0093968D01*
X0157435Y0093968D01*
X0157267Y0094136D01*
X0157295Y0094184D01*
X0157391Y0094540D01*
X0157391Y0095715D01*
X0153524Y0095715D01*
X0153524Y0096096D01*
X0157391Y0096096D01*
X0157391Y0097271D01*
X0157295Y0097627D01*
X0157111Y0097946D01*
X0156850Y0098207D01*
X0156531Y0098391D01*
X0156175Y0098487D01*
X0153524Y0098487D01*
X0153524Y0096096D01*
X0153143Y0096096D01*
X0153143Y0098487D01*
X0150492Y0098487D01*
X0150135Y0098391D01*
X0149816Y0098207D01*
X0149556Y0097946D01*
X0149371Y0097627D01*
X0149276Y0097271D01*
X0149276Y0096096D01*
X0153143Y0096096D01*
X0153143Y0095715D01*
X0149276Y0095715D01*
X0149276Y0094540D01*
X0149371Y0094184D01*
X0149399Y0094136D01*
X0149232Y0093968D01*
X0148473Y0093968D01*
X0148005Y0093500D02*
X0146383Y0093500D01*
X0146383Y0092702D02*
X0147207Y0092702D01*
X0146408Y0091903D02*
X0146180Y0091903D01*
X0146333Y0094299D02*
X0149341Y0094299D01*
X0149276Y0095097D02*
X0146333Y0095097D01*
X0146333Y0095896D02*
X0153143Y0095896D01*
X0153524Y0095896D02*
X0158902Y0095896D01*
X0158902Y0096694D02*
X0157391Y0096694D01*
X0157331Y0097493D02*
X0158902Y0097493D01*
X0158902Y0098291D02*
X0156704Y0098291D01*
X0158902Y0099888D02*
X0146333Y0099888D01*
X0146333Y0099090D02*
X0163248Y0099090D01*
X0158902Y0100687D02*
X0146333Y0100687D01*
X0146333Y0101485D02*
X0158902Y0101485D01*
X0158902Y0102284D02*
X0146333Y0102284D01*
X0146333Y0103082D02*
X0158902Y0103082D01*
X0158902Y0103881D02*
X0146333Y0103881D01*
X0144333Y0104000D02*
X0143333Y0105000D01*
X0143333Y0107000D01*
X0142833Y0107500D01*
X0139987Y0107500D01*
X0144333Y0104000D02*
X0144333Y0094000D01*
X0143333Y0093000D01*
X0146333Y0096694D02*
X0149276Y0096694D01*
X0149335Y0097493D02*
X0146333Y0097493D01*
X0146333Y0098291D02*
X0149963Y0098291D01*
X0153143Y0098291D02*
X0153524Y0098291D01*
X0153524Y0097493D02*
X0153143Y0097493D01*
X0153143Y0096694D02*
X0153524Y0096694D01*
X0157391Y0095097D02*
X0158902Y0095097D01*
X0158902Y0094299D02*
X0157326Y0094299D01*
X0158661Y0093500D02*
X0158902Y0093500D01*
X0179034Y0095896D02*
X0180403Y0095896D01*
X0180734Y0096694D02*
X0179034Y0096694D01*
X0179034Y0097493D02*
X0181513Y0097493D01*
X0179453Y0098291D02*
X0183796Y0098291D01*
X0183333Y0090000D02*
X0183333Y0081831D01*
X0183333Y0079500D01*
X0184333Y0078500D01*
X0184333Y0076500D02*
X0183333Y0075500D01*
X0183333Y0073169D01*
X0186483Y0073169D02*
X0186483Y0070150D01*
X0183833Y0067500D01*
X0175833Y0067500D01*
X0174833Y0066500D01*
X0173333Y0065000D01*
X0169180Y0065000D01*
X0184162Y0057000D02*
X0185333Y0058172D01*
X0185333Y0058400D01*
X0188446Y0058400D01*
X0189383Y0059337D01*
X0189383Y0060500D01*
X0193005Y0060500D01*
X0194005Y0059500D01*
X0200662Y0059500D01*
X0202593Y0061431D01*
X0206333Y0061431D01*
X0206333Y0058328D01*
X0201333Y0053328D01*
X0201333Y0051672D01*
X0201333Y0049908D01*
X0200331Y0049493D01*
X0198840Y0048002D01*
X0198333Y0046778D01*
X0197826Y0048002D01*
X0196336Y0049493D01*
X0194388Y0050300D01*
X0192279Y0050300D01*
X0190331Y0049493D01*
X0188840Y0048002D01*
X0188333Y0046778D01*
X0187826Y0048002D01*
X0186336Y0049493D01*
X0184388Y0050300D01*
X0182279Y0050300D01*
X0180331Y0049493D01*
X0178840Y0048002D01*
X0178333Y0046778D01*
X0177826Y0048002D01*
X0176336Y0049493D01*
X0175854Y0049692D01*
X0179162Y0053000D01*
X0186020Y0053000D01*
X0186606Y0052414D01*
X0187727Y0051950D01*
X0188940Y0051950D01*
X0190061Y0052414D01*
X0190919Y0053272D01*
X0191383Y0054393D01*
X0191383Y0055607D01*
X0190919Y0056728D01*
X0190061Y0057586D01*
X0188940Y0058050D01*
X0187727Y0058050D01*
X0186606Y0057586D01*
X0186020Y0057000D01*
X0184162Y0057000D01*
X0184729Y0057567D02*
X0186587Y0057567D01*
X0185333Y0058366D02*
X0206333Y0058366D01*
X0206333Y0059164D02*
X0189210Y0059164D01*
X0189383Y0059963D02*
X0193542Y0059963D01*
X0194833Y0061500D02*
X0199833Y0061500D01*
X0200833Y0062500D01*
X0200833Y0064500D01*
X0201333Y0065000D01*
X0204180Y0065000D01*
X0210333Y0064754D02*
X0231333Y0064754D01*
X0231333Y0065552D02*
X0210333Y0065552D01*
X0210333Y0066351D02*
X0231333Y0066351D01*
X0231333Y0067149D02*
X0210333Y0067149D01*
X0210333Y0067948D02*
X0231333Y0067948D01*
X0231333Y0068746D02*
X0210333Y0068746D01*
X0210333Y0068828D02*
X0209162Y0070000D01*
X0207369Y0071793D01*
X0207945Y0072369D01*
X0207945Y0073000D01*
X0219162Y0073000D01*
X0220333Y0074172D01*
X0222265Y0076103D01*
X0222265Y0075951D01*
X0223202Y0075014D01*
X0231333Y0075014D01*
X0231333Y0042000D01*
X0217827Y0042000D01*
X0218633Y0043946D01*
X0218633Y0046054D01*
X0217826Y0048002D01*
X0216336Y0049493D01*
X0214388Y0050300D01*
X0212279Y0050300D01*
X0210331Y0049493D01*
X0208840Y0048002D01*
X0208333Y0046778D01*
X0207826Y0048002D01*
X0206336Y0049493D01*
X0205333Y0049908D01*
X0205333Y0051672D01*
X0210333Y0056672D01*
X0210333Y0068828D01*
X0209617Y0069545D02*
X0231333Y0069545D01*
X0231333Y0070343D02*
X0208818Y0070343D01*
X0208020Y0071142D02*
X0231333Y0071142D01*
X0231333Y0071940D02*
X0207517Y0071940D01*
X0207945Y0072739D02*
X0231333Y0072739D01*
X0231333Y0073537D02*
X0219699Y0073537D01*
X0220333Y0074172D02*
X0220333Y0074172D01*
X0220498Y0074336D02*
X0231333Y0074336D01*
X0223082Y0075134D02*
X0221296Y0075134D01*
X0222095Y0075933D02*
X0222283Y0075933D01*
X0218333Y0075000D02*
X0204180Y0075000D01*
X0201112Y0078329D02*
X0200555Y0078329D01*
X0197487Y0075000D02*
X0197487Y0070000D01*
X0206333Y0070000D01*
X0208333Y0068000D01*
X0208333Y0057500D01*
X0203333Y0052500D01*
X0203333Y0045000D01*
X0198502Y0047187D02*
X0198164Y0047187D01*
X0197834Y0047985D02*
X0198833Y0047985D01*
X0199622Y0048784D02*
X0197045Y0048784D01*
X0196121Y0049582D02*
X0200546Y0049582D01*
X0201333Y0050381D02*
X0176542Y0050381D01*
X0176121Y0049582D02*
X0180546Y0049582D01*
X0179622Y0048784D02*
X0177045Y0048784D01*
X0177834Y0047985D02*
X0178833Y0047985D01*
X0178502Y0047187D02*
X0178164Y0047187D01*
X0173333Y0045000D02*
X0173333Y0050000D01*
X0178333Y0055000D01*
X0188333Y0055000D01*
X0186244Y0052776D02*
X0178938Y0052776D01*
X0178139Y0051978D02*
X0187660Y0051978D01*
X0189007Y0051978D02*
X0201333Y0051978D01*
X0201333Y0052776D02*
X0190423Y0052776D01*
X0191044Y0053575D02*
X0201580Y0053575D01*
X0202378Y0054373D02*
X0191375Y0054373D01*
X0191383Y0055172D02*
X0203177Y0055172D01*
X0203975Y0055970D02*
X0191233Y0055970D01*
X0190878Y0056769D02*
X0204774Y0056769D01*
X0205572Y0057567D02*
X0190079Y0057567D01*
X0186533Y0062500D02*
X0193833Y0062500D01*
X0194833Y0061500D01*
X0201125Y0059963D02*
X0206333Y0059963D01*
X0206333Y0060761D02*
X0201923Y0060761D01*
X0210333Y0060761D02*
X0231333Y0060761D01*
X0231333Y0059963D02*
X0210333Y0059963D01*
X0210333Y0059164D02*
X0231333Y0059164D01*
X0231333Y0058366D02*
X0210333Y0058366D01*
X0210333Y0057567D02*
X0231333Y0057567D01*
X0231333Y0056769D02*
X0210333Y0056769D01*
X0209632Y0055970D02*
X0231333Y0055970D01*
X0231333Y0055172D02*
X0208833Y0055172D01*
X0208035Y0054373D02*
X0231333Y0054373D01*
X0231333Y0053575D02*
X0207236Y0053575D01*
X0206438Y0052776D02*
X0231333Y0052776D01*
X0231333Y0051978D02*
X0205639Y0051978D01*
X0205333Y0051179D02*
X0231333Y0051179D01*
X0231333Y0050381D02*
X0205333Y0050381D01*
X0206121Y0049582D02*
X0210546Y0049582D01*
X0209622Y0048784D02*
X0207045Y0048784D01*
X0207834Y0047985D02*
X0208833Y0047985D01*
X0208502Y0047187D02*
X0208164Y0047187D01*
X0216121Y0049582D02*
X0231333Y0049582D01*
X0231333Y0048784D02*
X0217045Y0048784D01*
X0217834Y0047985D02*
X0231333Y0047985D01*
X0231333Y0047187D02*
X0218164Y0047187D01*
X0218495Y0046388D02*
X0231333Y0046388D01*
X0231333Y0045590D02*
X0218633Y0045590D01*
X0218633Y0044791D02*
X0231333Y0044791D01*
X0231333Y0043993D02*
X0218633Y0043993D01*
X0218322Y0043194D02*
X0231333Y0043194D01*
X0231333Y0042396D02*
X0217991Y0042396D01*
X0201333Y0051179D02*
X0177341Y0051179D01*
X0173333Y0049500D02*
X0173333Y0045000D01*
X0163333Y0045000D02*
X0163333Y0057000D01*
X0161333Y0054373D02*
X0135333Y0054373D01*
X0135333Y0053575D02*
X0161333Y0053575D01*
X0161333Y0052776D02*
X0135333Y0052776D01*
X0135333Y0051978D02*
X0161333Y0051978D01*
X0161333Y0051179D02*
X0135333Y0051179D01*
X0135333Y0050381D02*
X0161333Y0050381D01*
X0160546Y0049582D02*
X0155574Y0049582D01*
X0156762Y0048784D02*
X0159622Y0048784D01*
X0158833Y0047985D02*
X0157468Y0047985D01*
X0157943Y0047187D02*
X0158502Y0047187D01*
X0153733Y0047187D02*
X0152933Y0047187D01*
X0152933Y0047985D02*
X0153733Y0047985D01*
X0153733Y0048784D02*
X0152933Y0048784D01*
X0152933Y0049582D02*
X0153733Y0049582D01*
X0151093Y0049582D02*
X0135333Y0049582D01*
X0135333Y0048784D02*
X0149904Y0048784D01*
X0149198Y0047985D02*
X0135333Y0047985D01*
X0135333Y0047187D02*
X0136489Y0047187D01*
X0136719Y0047416D02*
X0135917Y0046614D01*
X0135483Y0045567D01*
X0135483Y0044433D01*
X0135917Y0043386D01*
X0136719Y0042584D01*
X0137766Y0042150D01*
X0138900Y0042150D01*
X0139948Y0042584D01*
X0140749Y0043386D01*
X0141183Y0044433D01*
X0141183Y0045567D01*
X0140749Y0046614D01*
X0139948Y0047416D01*
X0138900Y0047850D01*
X0137766Y0047850D01*
X0136719Y0047416D01*
X0135823Y0046388D02*
X0135333Y0046388D01*
X0135333Y0045590D02*
X0135493Y0045590D01*
X0135483Y0044791D02*
X0135333Y0044791D01*
X0135333Y0043993D02*
X0135666Y0043993D01*
X0135333Y0043194D02*
X0136109Y0043194D01*
X0135333Y0042396D02*
X0137174Y0042396D01*
X0139493Y0042396D02*
X0148936Y0042396D01*
X0148558Y0043194D02*
X0140558Y0043194D01*
X0141001Y0043993D02*
X0148329Y0043993D01*
X0148263Y0045590D02*
X0141174Y0045590D01*
X0141183Y0044791D02*
X0152933Y0044791D01*
X0152933Y0045590D02*
X0153733Y0045590D01*
X0153733Y0046388D02*
X0152933Y0046388D01*
X0148724Y0047187D02*
X0140177Y0047187D01*
X0140843Y0046388D02*
X0148422Y0046388D01*
X0186121Y0049582D02*
X0190546Y0049582D01*
X0189622Y0048784D02*
X0187045Y0048784D01*
X0187834Y0047985D02*
X0188833Y0047985D01*
X0188502Y0047187D02*
X0188164Y0047187D01*
X0210333Y0061560D02*
X0231333Y0061560D01*
X0231333Y0062358D02*
X0210333Y0062358D01*
X0210333Y0063157D02*
X0231333Y0063157D01*
X0231333Y0063955D02*
X0210333Y0063955D01*
X0197487Y0065000D02*
X0193333Y0065000D01*
X0191833Y0066500D01*
X0189633Y0068701D01*
X0189633Y0073169D01*
X0193333Y0072000D02*
X0195333Y0070000D01*
X0197487Y0070000D01*
X0193333Y0072000D02*
X0193333Y0075500D01*
X0192333Y0076500D01*
X0184333Y0076500D01*
X0186483Y0081831D02*
X0186483Y0089150D01*
X0186833Y0089500D01*
X0196833Y0089500D01*
X0197487Y0088846D01*
X0197487Y0085000D01*
X0193722Y0084717D02*
X0191133Y0084717D01*
X0191157Y0084710D02*
X0190801Y0084805D01*
X0189725Y0084805D01*
X0189725Y0081923D01*
X0189540Y0081923D01*
X0189540Y0084805D01*
X0188483Y0084805D01*
X0188483Y0086882D01*
X0188561Y0086914D01*
X0189147Y0087500D01*
X0193722Y0087500D01*
X0193722Y0083050D01*
X0193227Y0083050D01*
X0192106Y0082586D01*
X0192017Y0082497D01*
X0192017Y0083590D01*
X0191921Y0083946D01*
X0191737Y0084265D01*
X0191476Y0084526D01*
X0191157Y0084710D01*
X0191929Y0083918D02*
X0193722Y0083918D01*
X0193722Y0083120D02*
X0192017Y0083120D01*
X0189725Y0083120D02*
X0189540Y0083120D01*
X0189540Y0083918D02*
X0189725Y0083918D01*
X0189725Y0084717D02*
X0189540Y0084717D01*
X0188483Y0085515D02*
X0193722Y0085515D01*
X0193722Y0086314D02*
X0188483Y0086314D01*
X0188759Y0087112D02*
X0193722Y0087112D01*
X0189725Y0082321D02*
X0189540Y0082321D01*
X0221833Y0085000D02*
X0225833Y0085000D01*
X0169333Y0107500D02*
X0168333Y0108500D01*
X0154333Y0108500D01*
X0153333Y0107500D01*
X0146680Y0107500D01*
X0150445Y0105478D02*
X0158902Y0105478D01*
X0158902Y0106276D02*
X0154938Y0106276D01*
X0158902Y0104679D02*
X0150256Y0104679D01*
X0146680Y0115000D02*
X0156833Y0115000D01*
X0157333Y0115500D01*
X0139987Y0115000D02*
X0139987Y0119846D01*
X0138333Y0121500D01*
D22*
X0138333Y0121500D03*
X0155333Y0104500D03*
X0147833Y0094500D03*
X0143333Y0093000D03*
X0169333Y0092500D03*
X0183333Y0095000D03*
X0193333Y0095000D03*
X0186833Y0089500D03*
X0192333Y0085500D03*
X0193833Y0080000D03*
X0198333Y0080000D03*
X0218333Y0080000D03*
X0225833Y0085000D03*
X0221333Y0091000D03*
X0223333Y0095000D03*
X0213333Y0105000D03*
X0230679Y0111155D03*
X0217833Y0120000D03*
X0203333Y0130000D03*
X0171833Y0080000D03*
X0161833Y0080000D03*
X0174833Y0066500D03*
X0191833Y0066500D03*
X0218333Y0070000D03*
X0188333Y0055000D03*
X0178333Y0050000D03*
X0198333Y0050000D03*
X0208333Y0050000D03*
X0153333Y0060000D03*
M02*
