G75*
%MOIN*%
%OFA0B0*%
%FSLAX25Y25*%
%IPPOS*%
%LPD*%
%AMOC8*
5,1,8,0,0,1.08239X$1,22.5*
%
%ADD10R,0.08674X0.05524*%
%ADD11R,0.06115X0.03162*%
%ADD12R,0.05131X0.04737*%
%ADD13R,0.03300X0.05800*%
%ADD14C,0.13800*%
%ADD15C,0.03300*%
%ADD16C,0.08200*%
%ADD17R,0.08674X0.20485*%
%ADD18R,0.07493X0.16548*%
%ADD19R,0.02769X0.03950*%
%ADD20R,0.11750X0.11750*%
D10*
X0138865Y0078976D03*
X0138865Y0101024D03*
X0227802Y0101024D03*
X0227802Y0078976D03*
D11*
X0213333Y0084094D03*
X0213333Y0088031D03*
X0213333Y0091969D03*
X0213333Y0095906D03*
X0153333Y0095906D03*
X0153333Y0091969D03*
X0153333Y0088031D03*
X0153333Y0084094D03*
D12*
X0162487Y0085000D03*
X0169180Y0085000D03*
X0169180Y0075000D03*
X0162487Y0075000D03*
X0162487Y0065000D03*
X0169180Y0065000D03*
X0197487Y0065000D03*
X0204180Y0065000D03*
X0204180Y0075000D03*
X0197487Y0075000D03*
X0197487Y0085000D03*
X0204180Y0085000D03*
X0219987Y0107500D03*
X0226680Y0107500D03*
X0226680Y0115000D03*
X0219987Y0115000D03*
X0146680Y0115000D03*
X0139987Y0115000D03*
X0139987Y0107500D03*
X0146680Y0107500D03*
D13*
X0180133Y0062500D03*
X0183333Y0062500D03*
X0186533Y0062500D03*
D14*
X0223333Y0130000D03*
X0143333Y0130000D03*
D15*
X0138333Y0045000D03*
X0210833Y0137000D03*
D16*
X0213333Y0045000D03*
X0203333Y0045000D03*
X0193333Y0045000D03*
X0183333Y0045000D03*
X0173333Y0045000D03*
X0163333Y0045000D03*
X0153333Y0045000D03*
D17*
X0203609Y0099000D03*
D18*
X0163648Y0099000D03*
D19*
X0177034Y0081831D03*
X0180184Y0081831D03*
X0183333Y0081831D03*
X0186483Y0081831D03*
X0189633Y0081831D03*
X0189633Y0073169D03*
X0186483Y0073169D03*
X0183333Y0073169D03*
X0180184Y0073169D03*
X0177034Y0073169D03*
D20*
X0157333Y0115500D03*
X0209333Y0115500D03*
M02*
