G75*
%MOIN*%
%OFA0B0*%
%FSLAX25Y25*%
%IPPOS*%
%LPD*%
%AMOC8*
5,1,8,0,0,1.08239X$1,22.5*
%
%ADD10C,0.00800*%
%ADD11C,0.00500*%
%ADD12C,0.00591*%
%ADD13C,0.00300*%
D10*
X0150406Y0062900D02*
X0151807Y0062900D01*
X0152508Y0063601D01*
X0152508Y0065002D01*
X0151807Y0065702D01*
X0150406Y0065702D01*
X0149706Y0065002D01*
X0149706Y0064301D01*
X0152508Y0064301D01*
X0154176Y0062900D02*
X0155577Y0062900D01*
X0154877Y0062900D02*
X0154877Y0067104D01*
X0155577Y0067104D01*
X0157379Y0065702D02*
X0157379Y0062900D01*
X0159481Y0062900D01*
X0160181Y0063601D01*
X0160181Y0065702D01*
X0161983Y0065702D02*
X0164084Y0065702D01*
X0164785Y0065002D01*
X0164785Y0063601D01*
X0164084Y0062900D01*
X0161983Y0062900D01*
X0161983Y0067104D01*
X0166587Y0065002D02*
X0167287Y0065702D01*
X0168688Y0065702D01*
X0169389Y0065002D01*
X0169389Y0063601D01*
X0168688Y0062900D01*
X0167287Y0062900D01*
X0166587Y0063601D01*
X0166587Y0065002D01*
X0171190Y0067104D02*
X0171190Y0062900D01*
X0173993Y0062900D02*
X0173993Y0067104D01*
X0172592Y0065702D01*
X0171190Y0067104D01*
X0180398Y0066403D02*
X0181099Y0067104D01*
X0182500Y0067104D01*
X0183201Y0066403D01*
X0183201Y0063601D01*
X0182500Y0062900D01*
X0181099Y0062900D01*
X0180398Y0063601D01*
X0185002Y0067104D02*
X0187805Y0067104D01*
X0186403Y0067104D02*
X0186403Y0062900D01*
X0189606Y0062900D02*
X0191007Y0064301D01*
X0190307Y0064301D02*
X0192409Y0064301D01*
X0192409Y0062900D02*
X0192409Y0067104D01*
X0190307Y0067104D01*
X0189606Y0066403D01*
X0189606Y0065002D01*
X0190307Y0064301D01*
X0198814Y0062900D02*
X0200916Y0062900D01*
X0201616Y0063601D01*
X0201616Y0065002D01*
X0200916Y0065702D01*
X0198814Y0065702D01*
X0203985Y0065702D02*
X0203985Y0062900D01*
X0203285Y0062900D02*
X0204686Y0062900D01*
X0206354Y0062900D02*
X0207755Y0062900D01*
X0207054Y0062900D02*
X0207054Y0065702D01*
X0207755Y0065702D01*
X0207054Y0067104D02*
X0207054Y0067804D01*
X0203985Y0067804D02*
X0203985Y0067104D01*
X0203985Y0065702D02*
X0204686Y0065702D01*
X0209557Y0065702D02*
X0209557Y0063601D01*
X0210257Y0062900D01*
X0210958Y0063601D01*
X0211658Y0062900D01*
X0212359Y0063601D01*
X0212359Y0065702D01*
X0214160Y0066403D02*
X0214160Y0063601D01*
X0214861Y0062900D01*
X0216262Y0062900D01*
X0216963Y0063601D01*
X0216963Y0066403D01*
X0216262Y0067104D01*
X0214861Y0067104D01*
X0214160Y0066403D01*
X0215562Y0064301D02*
X0214160Y0062900D01*
X0198333Y0090500D02*
X0168333Y0090500D01*
X0158333Y0100500D01*
X0158333Y0105500D01*
X0198333Y0090500D02*
X0208333Y0100500D01*
X0208333Y0105500D01*
X0208333Y0125500D02*
X0208333Y0131500D01*
X0208334Y0131500D02*
X0208322Y0131693D01*
X0208306Y0131885D01*
X0208286Y0132076D01*
X0208260Y0132267D01*
X0208230Y0132458D01*
X0208195Y0132647D01*
X0208156Y0132836D01*
X0208112Y0133024D01*
X0208064Y0133210D01*
X0208011Y0133395D01*
X0207953Y0133579D01*
X0207891Y0133762D01*
X0207824Y0133943D01*
X0207754Y0134122D01*
X0207678Y0134299D01*
X0207599Y0134475D01*
X0207515Y0134648D01*
X0207427Y0134820D01*
X0207335Y0134989D01*
X0207238Y0135156D01*
X0207138Y0135320D01*
X0207033Y0135482D01*
X0206925Y0135641D01*
X0206813Y0135798D01*
X0206697Y0135952D01*
X0206577Y0136103D01*
X0206454Y0136251D01*
X0206327Y0136396D01*
X0206196Y0136538D01*
X0206062Y0136676D01*
X0205925Y0136811D01*
X0205784Y0136943D01*
X0205641Y0137072D01*
X0205494Y0137196D01*
X0205344Y0137318D01*
X0205191Y0137435D01*
X0205036Y0137549D01*
X0204877Y0137659D01*
X0204716Y0137765D01*
X0204553Y0137867D01*
X0204387Y0137965D01*
X0204219Y0138058D01*
X0204048Y0138148D01*
X0203875Y0138234D01*
X0203701Y0138315D01*
X0203524Y0138392D01*
X0203345Y0138464D01*
X0203165Y0138533D01*
X0202983Y0138596D01*
X0202800Y0138656D01*
X0202615Y0138711D01*
X0202429Y0138761D01*
X0202242Y0138807D01*
X0202054Y0138848D01*
X0201865Y0138884D01*
X0201674Y0138916D01*
X0201484Y0138943D01*
X0201292Y0138966D01*
X0201100Y0138984D01*
X0200908Y0138997D01*
X0200716Y0139005D01*
X0200523Y0139009D01*
X0200330Y0139008D01*
X0200138Y0139002D01*
X0199945Y0138992D01*
X0199753Y0138976D01*
X0199561Y0138957D01*
X0199370Y0138932D01*
X0199180Y0138903D01*
X0198990Y0138869D01*
X0198801Y0138831D01*
X0198614Y0138788D01*
X0198427Y0138740D01*
X0198241Y0138688D01*
X0198057Y0138631D01*
X0197874Y0138570D01*
X0197693Y0138504D01*
X0197514Y0138434D01*
X0197336Y0138359D01*
X0197160Y0138281D01*
X0196986Y0138197D01*
X0196815Y0138110D01*
X0196645Y0138019D01*
X0196478Y0137923D01*
X0196313Y0137823D01*
X0196150Y0137720D01*
X0195990Y0137612D01*
X0195833Y0137500D01*
X0195584Y0137197D01*
X0195327Y0136899D01*
X0195063Y0136608D01*
X0194792Y0136324D01*
X0194514Y0136046D01*
X0194229Y0135776D01*
X0193938Y0135512D01*
X0193640Y0135256D01*
X0193336Y0135007D01*
X0193026Y0134765D01*
X0192711Y0134531D01*
X0192389Y0134305D01*
X0192063Y0134087D01*
X0191731Y0133877D01*
X0191394Y0133675D01*
X0191052Y0133482D01*
X0190705Y0133297D01*
X0190354Y0133120D01*
X0189999Y0132953D01*
X0189640Y0132794D01*
X0189277Y0132643D01*
X0188910Y0132502D01*
X0188540Y0132370D01*
X0188167Y0132247D01*
X0187791Y0132133D01*
X0187413Y0132028D01*
X0187032Y0131933D01*
X0186648Y0131847D01*
X0186263Y0131770D01*
X0185876Y0131703D01*
X0185487Y0131645D01*
X0185097Y0131597D01*
X0184706Y0131559D01*
X0184315Y0131530D01*
X0183922Y0131511D01*
X0183529Y0131501D01*
X0183137Y0131501D01*
X0182744Y0131511D01*
X0182351Y0131530D01*
X0181960Y0131559D01*
X0181569Y0131597D01*
X0181179Y0131645D01*
X0180790Y0131703D01*
X0180403Y0131770D01*
X0180018Y0131847D01*
X0179634Y0131933D01*
X0179253Y0132028D01*
X0178875Y0132133D01*
X0178499Y0132247D01*
X0178126Y0132370D01*
X0177756Y0132502D01*
X0177389Y0132643D01*
X0177026Y0132794D01*
X0176667Y0132953D01*
X0176312Y0133120D01*
X0175961Y0133297D01*
X0175614Y0133482D01*
X0175272Y0133675D01*
X0174935Y0133877D01*
X0174603Y0134087D01*
X0174277Y0134305D01*
X0173955Y0134531D01*
X0173640Y0134765D01*
X0173330Y0135007D01*
X0173026Y0135256D01*
X0172728Y0135512D01*
X0172437Y0135776D01*
X0172152Y0136046D01*
X0171874Y0136324D01*
X0171603Y0136608D01*
X0171339Y0136899D01*
X0171082Y0137197D01*
X0170833Y0137500D01*
X0170685Y0137616D01*
X0170534Y0137728D01*
X0170381Y0137836D01*
X0170225Y0137941D01*
X0170066Y0138042D01*
X0169905Y0138138D01*
X0169742Y0138231D01*
X0169577Y0138320D01*
X0169409Y0138405D01*
X0169240Y0138486D01*
X0169068Y0138562D01*
X0168895Y0138635D01*
X0168720Y0138703D01*
X0168543Y0138767D01*
X0168365Y0138826D01*
X0168185Y0138881D01*
X0168005Y0138932D01*
X0167822Y0138978D01*
X0167639Y0139020D01*
X0167455Y0139057D01*
X0167270Y0139090D01*
X0167085Y0139118D01*
X0166898Y0139142D01*
X0166712Y0139161D01*
X0166524Y0139176D01*
X0166337Y0139186D01*
X0166149Y0139191D01*
X0165961Y0139192D01*
X0165773Y0139188D01*
X0165586Y0139180D01*
X0165398Y0139167D01*
X0165211Y0139149D01*
X0165025Y0139127D01*
X0164839Y0139101D01*
X0164654Y0139069D01*
X0164469Y0139034D01*
X0164286Y0138994D01*
X0164103Y0138949D01*
X0163922Y0138900D01*
X0163742Y0138846D01*
X0163563Y0138789D01*
X0163386Y0138726D01*
X0163211Y0138660D01*
X0163037Y0138589D01*
X0162864Y0138514D01*
X0162694Y0138435D01*
X0162526Y0138352D01*
X0162360Y0138264D01*
X0162196Y0138173D01*
X0162034Y0138077D01*
X0161874Y0137978D01*
X0161718Y0137875D01*
X0161563Y0137768D01*
X0161412Y0137657D01*
X0161263Y0137542D01*
X0161117Y0137424D01*
X0160973Y0137303D01*
X0160833Y0137178D01*
X0160696Y0137049D01*
X0160562Y0136918D01*
X0160432Y0136783D01*
X0160304Y0136645D01*
X0160181Y0136503D01*
X0160060Y0136359D01*
X0159943Y0136212D01*
X0159830Y0136062D01*
X0159721Y0135910D01*
X0159615Y0135755D01*
X0159513Y0135597D01*
X0159415Y0135437D01*
X0159321Y0135274D01*
X0159231Y0135109D01*
X0159145Y0134942D01*
X0159063Y0134773D01*
X0158985Y0134602D01*
X0158911Y0134430D01*
X0158842Y0134255D01*
X0158777Y0134079D01*
X0158716Y0133901D01*
X0158660Y0133722D01*
X0158608Y0133541D01*
X0158560Y0133360D01*
X0158517Y0133177D01*
X0158479Y0132993D01*
X0158444Y0132808D01*
X0158415Y0132623D01*
X0158390Y0132437D01*
X0158369Y0132250D01*
X0158353Y0132063D01*
X0158342Y0131876D01*
X0158335Y0131688D01*
X0158333Y0131500D01*
X0158333Y0125500D01*
D11*
X0147633Y0106952D02*
X0148083Y0106502D01*
X0148083Y0104700D01*
X0147633Y0104250D01*
X0146732Y0104250D01*
X0146282Y0104700D01*
X0146282Y0106502D02*
X0146732Y0106952D01*
X0147633Y0106952D01*
X0140083Y0107452D02*
X0140083Y0104750D01*
X0138732Y0104750D01*
X0138282Y0105200D01*
X0138282Y0105651D01*
X0138732Y0106101D01*
X0140083Y0106101D01*
X0138732Y0106101D02*
X0138282Y0106552D01*
X0138282Y0107002D01*
X0138732Y0107452D01*
X0140083Y0107452D01*
X0152434Y0057445D02*
X0154235Y0057445D01*
X0154686Y0056994D01*
X0154686Y0055643D01*
X0151983Y0055643D01*
X0151983Y0056994D01*
X0152434Y0057445D01*
X0151983Y0054498D02*
X0154686Y0054498D01*
X0154686Y0052697D02*
X0151983Y0054498D01*
X0151983Y0052697D02*
X0154686Y0052697D01*
X0154235Y0051552D02*
X0154686Y0051101D01*
X0154686Y0050200D01*
X0154235Y0049750D01*
X0152434Y0049750D01*
X0151983Y0050200D01*
X0151983Y0051101D01*
X0152434Y0051552D01*
X0153334Y0051552D01*
X0153334Y0050651D01*
X0161983Y0051101D02*
X0161983Y0050200D01*
X0162434Y0049750D01*
X0163334Y0050651D02*
X0163334Y0051101D01*
X0162884Y0051552D01*
X0162434Y0051552D01*
X0161983Y0051101D01*
X0163334Y0051101D02*
X0163785Y0051552D01*
X0164235Y0051552D01*
X0164686Y0051101D01*
X0164686Y0050200D01*
X0164235Y0049750D01*
X0162434Y0052697D02*
X0162434Y0053147D01*
X0161983Y0053147D01*
X0161983Y0052697D01*
X0162434Y0052697D01*
X0162434Y0054170D02*
X0161983Y0054620D01*
X0161983Y0055521D01*
X0162434Y0055971D01*
X0162884Y0055971D01*
X0163334Y0055521D01*
X0163334Y0055071D01*
X0163334Y0055521D02*
X0163785Y0055971D01*
X0164235Y0055971D01*
X0164686Y0055521D01*
X0164686Y0054620D01*
X0164235Y0054170D01*
X0164686Y0057116D02*
X0162884Y0057116D01*
X0161983Y0058017D01*
X0162884Y0058918D01*
X0164686Y0058918D01*
X0171983Y0057445D02*
X0173785Y0057445D01*
X0174686Y0056544D01*
X0173785Y0055643D01*
X0171983Y0055643D01*
X0172434Y0054498D02*
X0174235Y0054498D01*
X0174686Y0054048D01*
X0174686Y0052697D01*
X0171983Y0052697D01*
X0171983Y0054048D01*
X0172434Y0054498D01*
X0173334Y0055643D02*
X0173334Y0057445D01*
X0181983Y0057445D02*
X0181983Y0055643D01*
X0184686Y0055643D01*
X0184235Y0054498D02*
X0184686Y0054048D01*
X0184686Y0053147D01*
X0184235Y0052697D01*
X0182434Y0052697D01*
X0181983Y0053147D01*
X0181983Y0054048D01*
X0182434Y0054498D01*
X0182434Y0051552D02*
X0181983Y0051101D01*
X0181983Y0050200D01*
X0182434Y0049750D01*
X0183334Y0050200D02*
X0183334Y0051101D01*
X0182884Y0051552D01*
X0182434Y0051552D01*
X0183334Y0050200D02*
X0183785Y0049750D01*
X0184235Y0049750D01*
X0184686Y0050200D01*
X0184686Y0051101D01*
X0184235Y0051552D01*
X0191983Y0053147D02*
X0192434Y0052697D01*
X0191983Y0053147D02*
X0191983Y0054048D01*
X0192434Y0054498D01*
X0192884Y0054498D01*
X0193334Y0054048D01*
X0193334Y0053147D01*
X0193785Y0052697D01*
X0194235Y0052697D01*
X0194686Y0053147D01*
X0194686Y0054048D01*
X0194235Y0054498D01*
X0194686Y0055643D02*
X0191983Y0055643D01*
X0192884Y0056544D01*
X0191983Y0057445D01*
X0194686Y0057445D01*
X0201983Y0055562D02*
X0204686Y0055562D01*
X0204686Y0056462D02*
X0204686Y0054661D01*
X0204686Y0053516D02*
X0201983Y0053516D01*
X0204686Y0051714D01*
X0201983Y0051714D01*
X0201983Y0050651D02*
X0201983Y0049750D01*
X0201983Y0050200D02*
X0204686Y0050200D01*
X0204686Y0049750D02*
X0204686Y0050651D01*
X0205683Y0049500D02*
X0205683Y0057357D01*
X0211983Y0056544D02*
X0214686Y0056544D01*
X0214686Y0055643D02*
X0214686Y0057445D01*
X0215683Y0058340D02*
X0215683Y0049500D01*
X0214686Y0049750D02*
X0214686Y0051101D01*
X0214235Y0051552D01*
X0213334Y0051552D01*
X0212884Y0051101D01*
X0212884Y0049750D01*
X0211983Y0049750D02*
X0214686Y0049750D01*
X0212884Y0050651D02*
X0211983Y0051552D01*
X0212434Y0052697D02*
X0211983Y0053147D01*
X0211983Y0054048D01*
X0212434Y0054498D01*
X0212884Y0054498D01*
X0213334Y0054048D01*
X0213334Y0053147D01*
X0213785Y0052697D01*
X0214235Y0052697D01*
X0214686Y0053147D01*
X0214686Y0054048D01*
X0214235Y0054498D01*
X0194686Y0051101D02*
X0194686Y0049750D01*
X0191983Y0049750D01*
X0192884Y0049750D02*
X0192884Y0051101D01*
X0193334Y0051552D01*
X0194235Y0051552D01*
X0194686Y0051101D01*
X0174686Y0051101D02*
X0174686Y0050200D01*
X0174235Y0049750D01*
X0173785Y0049750D01*
X0173334Y0050200D01*
X0173334Y0051101D01*
X0172884Y0051552D01*
X0172434Y0051552D01*
X0171983Y0051101D01*
X0171983Y0050200D01*
X0172434Y0049750D01*
X0174235Y0051552D02*
X0174686Y0051101D01*
D12*
X0139377Y0055587D02*
X0137472Y0055780D01*
X0137472Y0057220D01*
X0139377Y0057413D01*
X0139582Y0058054D01*
X0139890Y0058652D01*
X0138680Y0060136D01*
X0139698Y0061154D01*
X0141182Y0059943D01*
X0141780Y0060251D01*
X0142420Y0060456D01*
X0142614Y0062361D01*
X0144053Y0062361D01*
X0144247Y0060456D01*
X0144887Y0060251D01*
X0145485Y0059943D01*
X0146969Y0061154D01*
X0147987Y0060136D01*
X0146777Y0058652D01*
X0147085Y0058054D01*
X0147290Y0057413D01*
X0149195Y0057220D01*
X0149195Y0055780D01*
X0147290Y0055587D01*
X0147085Y0054946D01*
X0146777Y0054348D01*
X0147987Y0052864D01*
X0146969Y0051846D01*
X0145485Y0053057D01*
X0144887Y0052749D01*
X0144040Y0054795D01*
X0144418Y0055007D01*
X0144737Y0055301D01*
X0144978Y0055662D01*
X0145128Y0056069D01*
X0145179Y0056500D01*
X0145126Y0056939D01*
X0144970Y0057352D01*
X0144721Y0057717D01*
X0144392Y0058011D01*
X0144002Y0058220D01*
X0143574Y0058329D01*
X0143133Y0058334D01*
X0142702Y0058234D01*
X0142308Y0058034D01*
X0141973Y0057746D01*
X0141716Y0057387D01*
X0141551Y0056977D01*
X0141489Y0056540D01*
X0141532Y0056100D01*
X0141678Y0055684D01*
X0141920Y0055314D01*
X0142242Y0055012D01*
X0142627Y0054795D01*
X0141779Y0052749D01*
X0141182Y0053057D01*
X0139698Y0051846D01*
X0138680Y0052864D01*
X0139890Y0054348D01*
X0139582Y0054946D01*
X0139377Y0055587D01*
X0139464Y0055316D02*
X0141919Y0055316D01*
X0141601Y0055905D02*
X0137472Y0055905D01*
X0137472Y0056494D02*
X0141493Y0056494D01*
X0141594Y0057083D02*
X0137472Y0057083D01*
X0139460Y0057672D02*
X0141920Y0057672D01*
X0142819Y0058261D02*
X0139689Y0058261D01*
X0139728Y0058850D02*
X0146938Y0058850D01*
X0146978Y0058261D02*
X0143841Y0058261D01*
X0144751Y0057672D02*
X0147207Y0057672D01*
X0147419Y0059439D02*
X0139248Y0059439D01*
X0138768Y0060028D02*
X0141078Y0060028D01*
X0141346Y0060028D02*
X0145320Y0060028D01*
X0145589Y0060028D02*
X0147899Y0060028D01*
X0147506Y0060617D02*
X0146311Y0060617D01*
X0144230Y0060617D02*
X0142436Y0060617D01*
X0142496Y0061206D02*
X0144170Y0061206D01*
X0144111Y0061795D02*
X0142556Y0061795D01*
X0140355Y0060617D02*
X0139161Y0060617D01*
X0145072Y0057083D02*
X0149195Y0057083D01*
X0149195Y0056494D02*
X0145178Y0056494D01*
X0145067Y0055905D02*
X0149195Y0055905D01*
X0147203Y0055316D02*
X0144746Y0055316D01*
X0144068Y0054727D02*
X0146971Y0054727D01*
X0146949Y0054137D02*
X0144312Y0054137D01*
X0144556Y0053548D02*
X0147429Y0053548D01*
X0147909Y0052959D02*
X0145604Y0052959D01*
X0145296Y0052959D02*
X0144800Y0052959D01*
X0146327Y0052370D02*
X0147493Y0052370D01*
X0142599Y0054727D02*
X0139695Y0054727D01*
X0139718Y0054137D02*
X0142355Y0054137D01*
X0142111Y0053548D02*
X0139238Y0053548D01*
X0138757Y0052959D02*
X0141062Y0052959D01*
X0141371Y0052959D02*
X0141867Y0052959D01*
X0140340Y0052370D02*
X0139174Y0052370D01*
D13*
X0162227Y0070201D02*
X0163762Y0070201D01*
X0163762Y0073350D01*
X0163802Y0073665D01*
X0163841Y0073941D01*
X0163881Y0074177D01*
X0163999Y0074374D01*
X0164117Y0074531D01*
X0164314Y0074650D01*
X0164510Y0074689D01*
X0164747Y0074728D01*
X0165062Y0074689D01*
X0165298Y0074650D01*
X0165495Y0074531D01*
X0165652Y0074335D01*
X0165770Y0074138D01*
X0165888Y0073862D01*
X0165928Y0073508D01*
X0165928Y0070201D01*
X0167463Y0070201D01*
X0167463Y0075083D01*
X0167463Y0075791D01*
X0166007Y0075791D01*
X0166007Y0075004D01*
X0165967Y0075004D01*
X0165810Y0075240D01*
X0165652Y0075398D01*
X0165455Y0075555D01*
X0165219Y0075713D01*
X0164983Y0075791D01*
X0164747Y0075870D01*
X0164510Y0075909D01*
X0164274Y0075909D01*
X0163723Y0075870D01*
X0163290Y0075752D01*
X0162936Y0075555D01*
X0162660Y0075280D01*
X0162463Y0074965D01*
X0162345Y0074571D01*
X0162266Y0074138D01*
X0162227Y0073626D01*
X0162227Y0070201D01*
X0162227Y0070448D02*
X0163762Y0070448D01*
X0163762Y0070747D02*
X0162227Y0070747D01*
X0162227Y0071045D02*
X0163762Y0071045D01*
X0163762Y0071344D02*
X0162227Y0071344D01*
X0162227Y0071642D02*
X0163762Y0071642D01*
X0163762Y0071941D02*
X0162227Y0071941D01*
X0162227Y0072239D02*
X0163762Y0072239D01*
X0163762Y0072538D02*
X0162227Y0072538D01*
X0162227Y0072836D02*
X0163762Y0072836D01*
X0163762Y0073135D02*
X0162227Y0073135D01*
X0162227Y0073433D02*
X0163773Y0073433D01*
X0163811Y0073732D02*
X0162235Y0073732D01*
X0162258Y0074030D02*
X0163856Y0074030D01*
X0163972Y0074329D02*
X0162301Y0074329D01*
X0162362Y0074627D02*
X0164276Y0074627D01*
X0165335Y0074627D02*
X0167463Y0074627D01*
X0167463Y0074329D02*
X0165656Y0074329D01*
X0165816Y0074030D02*
X0167463Y0074030D01*
X0167463Y0073732D02*
X0165903Y0073732D01*
X0165928Y0073433D02*
X0167463Y0073433D01*
X0167463Y0073135D02*
X0165928Y0073135D01*
X0165928Y0072836D02*
X0167463Y0072836D01*
X0167463Y0072538D02*
X0165928Y0072538D01*
X0165928Y0072239D02*
X0167463Y0072239D01*
X0167463Y0071941D02*
X0165928Y0071941D01*
X0165928Y0071642D02*
X0167463Y0071642D01*
X0167463Y0071344D02*
X0165928Y0071344D01*
X0165928Y0071045D02*
X0167463Y0071045D01*
X0167463Y0070747D02*
X0165928Y0070747D01*
X0165928Y0070448D02*
X0167463Y0070448D01*
X0168290Y0070448D02*
X0169747Y0070448D01*
X0169747Y0070201D02*
X0169747Y0070988D01*
X0169786Y0070988D01*
X0169944Y0070752D01*
X0170101Y0070555D01*
X0170298Y0070398D01*
X0170534Y0070280D01*
X0170731Y0070201D01*
X0170967Y0070122D01*
X0171243Y0070083D01*
X0171479Y0070043D01*
X0172030Y0070083D01*
X0172463Y0070240D01*
X0172818Y0070437D01*
X0173093Y0070673D01*
X0173290Y0071028D01*
X0173408Y0071421D01*
X0173487Y0071854D01*
X0173487Y0075791D01*
X0171991Y0075791D01*
X0171991Y0072642D01*
X0171951Y0072327D01*
X0171912Y0072012D01*
X0171873Y0071776D01*
X0171755Y0071618D01*
X0171636Y0071461D01*
X0171440Y0071343D01*
X0171243Y0071303D01*
X0171007Y0071264D01*
X0170692Y0071303D01*
X0170455Y0071343D01*
X0170259Y0071461D01*
X0170101Y0071618D01*
X0169983Y0071854D01*
X0169865Y0072130D01*
X0169825Y0072445D01*
X0169825Y0075791D01*
X0168290Y0075791D01*
X0168290Y0070909D01*
X0168290Y0070201D01*
X0169747Y0070201D01*
X0169747Y0070747D02*
X0168290Y0070747D01*
X0168290Y0071045D02*
X0173295Y0071045D01*
X0173385Y0071344D02*
X0171442Y0071344D01*
X0171773Y0071642D02*
X0173448Y0071642D01*
X0173487Y0071941D02*
X0171900Y0071941D01*
X0171941Y0072239D02*
X0173487Y0072239D01*
X0173487Y0072538D02*
X0171978Y0072538D01*
X0171991Y0072836D02*
X0173487Y0072836D01*
X0173487Y0073135D02*
X0171991Y0073135D01*
X0171991Y0073433D02*
X0173487Y0073433D01*
X0173487Y0073732D02*
X0171991Y0073732D01*
X0171991Y0074030D02*
X0173487Y0074030D01*
X0173487Y0074329D02*
X0171991Y0074329D01*
X0171991Y0074627D02*
X0173487Y0074627D01*
X0173487Y0074926D02*
X0171991Y0074926D01*
X0171991Y0075224D02*
X0173487Y0075224D01*
X0173487Y0075523D02*
X0171991Y0075523D01*
X0173959Y0075523D02*
X0177257Y0075523D01*
X0177266Y0075516D02*
X0177109Y0075634D01*
X0176991Y0075791D01*
X0176518Y0075791D01*
X0176518Y0076579D01*
X0176400Y0076894D01*
X0176282Y0077169D01*
X0176085Y0077406D01*
X0175810Y0077602D01*
X0175495Y0077760D01*
X0175101Y0077878D01*
X0173959Y0077878D01*
X0173881Y0077839D01*
X0173881Y0076736D01*
X0174550Y0076736D01*
X0174707Y0076697D01*
X0174786Y0076657D01*
X0174865Y0076618D01*
X0174944Y0076500D01*
X0174983Y0076421D01*
X0174983Y0076264D01*
X0175022Y0076106D01*
X0175022Y0075791D01*
X0173959Y0075791D01*
X0173959Y0074768D01*
X0175022Y0074768D01*
X0175022Y0070201D01*
X0176518Y0070201D01*
X0176518Y0074177D01*
X0176518Y0074768D01*
X0178054Y0074768D01*
X0177896Y0074886D01*
X0177778Y0075004D01*
X0177660Y0075122D01*
X0177503Y0075280D01*
X0177385Y0075398D01*
X0177266Y0075516D01*
X0177558Y0075224D02*
X0173959Y0075224D01*
X0173959Y0074926D02*
X0177856Y0074926D01*
X0178277Y0075224D02*
X0180055Y0075224D01*
X0180342Y0074926D02*
X0178582Y0074926D01*
X0178886Y0074627D02*
X0180629Y0074627D01*
X0180916Y0074329D02*
X0179190Y0074329D01*
X0179494Y0074030D02*
X0181202Y0074030D01*
X0181440Y0074030D02*
X0182975Y0074030D01*
X0182975Y0073732D02*
X0179778Y0073732D01*
X0179786Y0073744D02*
X0177463Y0070201D01*
X0179314Y0070201D01*
X0180849Y0072681D01*
X0181440Y0072130D01*
X0181440Y0070201D01*
X0182975Y0070201D01*
X0182975Y0077051D01*
X0181440Y0077878D01*
X0181440Y0073783D01*
X0179510Y0075791D01*
X0177699Y0075791D01*
X0179786Y0073744D01*
X0179582Y0073433D02*
X0182975Y0073433D01*
X0182975Y0073135D02*
X0179387Y0073135D01*
X0179191Y0072836D02*
X0182975Y0072836D01*
X0182975Y0072538D02*
X0181003Y0072538D01*
X0180760Y0072538D02*
X0178995Y0072538D01*
X0178800Y0072239D02*
X0180576Y0072239D01*
X0180391Y0071941D02*
X0178604Y0071941D01*
X0178408Y0071642D02*
X0180206Y0071642D01*
X0180021Y0071344D02*
X0178212Y0071344D01*
X0178017Y0071045D02*
X0179836Y0071045D01*
X0179652Y0070747D02*
X0177821Y0070747D01*
X0177625Y0070448D02*
X0179467Y0070448D01*
X0181440Y0070448D02*
X0182975Y0070448D01*
X0182975Y0070747D02*
X0181440Y0070747D01*
X0181440Y0071045D02*
X0182975Y0071045D01*
X0182975Y0071344D02*
X0181440Y0071344D01*
X0181440Y0071642D02*
X0182975Y0071642D01*
X0182975Y0071941D02*
X0181440Y0071941D01*
X0181323Y0072239D02*
X0182975Y0072239D01*
X0182975Y0074329D02*
X0181440Y0074329D01*
X0181440Y0074627D02*
X0182975Y0074627D01*
X0182975Y0074926D02*
X0181440Y0074926D01*
X0181440Y0075224D02*
X0182975Y0075224D01*
X0182975Y0075523D02*
X0181440Y0075523D01*
X0181440Y0075821D02*
X0182975Y0075821D01*
X0182975Y0076120D02*
X0181440Y0076120D01*
X0181440Y0076418D02*
X0182975Y0076418D01*
X0182975Y0076717D02*
X0181440Y0076717D01*
X0181440Y0077015D02*
X0182975Y0077015D01*
X0182487Y0077314D02*
X0181440Y0077314D01*
X0181440Y0077612D02*
X0181933Y0077612D01*
X0179825Y0077612D02*
X0179200Y0077612D01*
X0179274Y0077524D02*
X0179077Y0077760D01*
X0178841Y0077996D01*
X0178644Y0078272D01*
X0178369Y0078547D01*
X0178133Y0078783D01*
X0177936Y0079020D01*
X0177739Y0079177D01*
X0177542Y0079335D01*
X0177345Y0079453D01*
X0177109Y0079492D01*
X0176361Y0079492D01*
X0175888Y0079571D01*
X0175455Y0079689D01*
X0175062Y0079846D01*
X0174668Y0080083D01*
X0174353Y0080358D01*
X0174038Y0080673D01*
X0173762Y0081028D01*
X0173369Y0081736D01*
X0173172Y0082445D01*
X0173133Y0083154D01*
X0173251Y0083783D01*
X0173448Y0084335D01*
X0173723Y0084807D01*
X0174038Y0085161D01*
X0174353Y0085319D01*
X0174353Y0085004D01*
X0174392Y0084886D01*
X0174432Y0084768D01*
X0174550Y0084689D01*
X0174668Y0084650D01*
X0174944Y0084650D01*
X0175101Y0084728D01*
X0175259Y0084807D01*
X0175377Y0084886D01*
X0175534Y0085004D01*
X0175652Y0085083D01*
X0175770Y0085201D01*
X0175849Y0085358D01*
X0175928Y0085476D01*
X0175967Y0085634D01*
X0176007Y0085752D01*
X0175967Y0085870D01*
X0175928Y0085949D01*
X0175888Y0086067D01*
X0175810Y0086185D01*
X0175652Y0086303D01*
X0175495Y0086382D01*
X0175298Y0086421D01*
X0175140Y0086461D01*
X0175022Y0086461D01*
X0174904Y0086421D01*
X0174786Y0086421D01*
X0174825Y0086461D01*
X0174983Y0086579D01*
X0175219Y0086697D01*
X0175534Y0086815D01*
X0175888Y0086933D01*
X0176282Y0086933D01*
X0176715Y0086854D01*
X0177148Y0086618D01*
X0177503Y0086303D01*
X0177699Y0086028D01*
X0177818Y0085673D01*
X0177818Y0085358D01*
X0177739Y0085004D01*
X0177542Y0084650D01*
X0177266Y0084335D01*
X0176951Y0083980D01*
X0176676Y0083665D01*
X0176558Y0083390D01*
X0176558Y0083114D01*
X0176636Y0082878D01*
X0176794Y0082681D01*
X0177030Y0082524D01*
X0177345Y0082445D01*
X0177660Y0082445D01*
X0177857Y0082484D01*
X0178054Y0082563D01*
X0178172Y0082642D01*
X0178290Y0082760D01*
X0178369Y0082917D01*
X0178408Y0083035D01*
X0178408Y0083154D01*
X0178369Y0083272D01*
X0178290Y0083390D01*
X0178211Y0083469D01*
X0178133Y0083547D01*
X0178014Y0083587D01*
X0177936Y0083626D01*
X0177857Y0083665D01*
X0177818Y0083705D01*
X0177896Y0083744D01*
X0177975Y0083744D01*
X0178133Y0083783D01*
X0178448Y0083783D01*
X0178684Y0083744D01*
X0178881Y0083665D01*
X0179077Y0083587D01*
X0179235Y0083469D01*
X0179432Y0083350D01*
X0179550Y0083154D01*
X0179668Y0082917D01*
X0179747Y0082681D01*
X0179786Y0082327D01*
X0179825Y0081972D01*
X0179825Y0076933D01*
X0179786Y0076933D01*
X0179707Y0077051D01*
X0179589Y0077169D01*
X0179471Y0077327D01*
X0179274Y0077524D01*
X0179481Y0077314D02*
X0179825Y0077314D01*
X0179825Y0077015D02*
X0179731Y0077015D01*
X0179825Y0077911D02*
X0178926Y0077911D01*
X0178689Y0078209D02*
X0179825Y0078209D01*
X0179825Y0078508D02*
X0178408Y0078508D01*
X0178113Y0078806D02*
X0179825Y0078806D01*
X0179825Y0079105D02*
X0177829Y0079105D01*
X0177427Y0079403D02*
X0179825Y0079403D01*
X0179825Y0079702D02*
X0175423Y0079702D01*
X0174805Y0080001D02*
X0179825Y0080001D01*
X0179825Y0080299D02*
X0174421Y0080299D01*
X0174114Y0080598D02*
X0179825Y0080598D01*
X0179825Y0080896D02*
X0173865Y0080896D01*
X0173670Y0081195D02*
X0179825Y0081195D01*
X0179825Y0081493D02*
X0173504Y0081493D01*
X0173353Y0081792D02*
X0179825Y0081792D01*
X0179812Y0082090D02*
X0173270Y0082090D01*
X0173188Y0082389D02*
X0179779Y0082389D01*
X0179745Y0082687D02*
X0178217Y0082687D01*
X0178392Y0082986D02*
X0179634Y0082986D01*
X0179472Y0083284D02*
X0178360Y0083284D01*
X0178026Y0083583D02*
X0179083Y0083583D01*
X0177613Y0084777D02*
X0175198Y0084777D01*
X0175641Y0085075D02*
X0177755Y0085075D01*
X0177818Y0085374D02*
X0175859Y0085374D01*
X0175980Y0085672D02*
X0177818Y0085672D01*
X0177718Y0085971D02*
X0175921Y0085971D01*
X0175697Y0086269D02*
X0177527Y0086269D01*
X0177205Y0086568D02*
X0174968Y0086568D01*
X0175688Y0086866D02*
X0176650Y0086866D01*
X0177392Y0084478D02*
X0173531Y0084478D01*
X0173392Y0084180D02*
X0177129Y0084180D01*
X0176865Y0083881D02*
X0173286Y0083881D01*
X0173213Y0083583D02*
X0176640Y0083583D01*
X0176558Y0083284D02*
X0173157Y0083284D01*
X0173142Y0082986D02*
X0176601Y0082986D01*
X0176789Y0082687D02*
X0173158Y0082687D01*
X0173705Y0084777D02*
X0174429Y0084777D01*
X0174353Y0085075D02*
X0173961Y0085075D01*
X0173881Y0077612D02*
X0175790Y0077612D01*
X0176162Y0077314D02*
X0173881Y0077314D01*
X0173881Y0077015D02*
X0176348Y0077015D01*
X0176467Y0076717D02*
X0174627Y0076717D01*
X0174983Y0076418D02*
X0176518Y0076418D01*
X0176518Y0076120D02*
X0175019Y0076120D01*
X0175022Y0075821D02*
X0176518Y0075821D01*
X0176518Y0074627D02*
X0175022Y0074627D01*
X0175022Y0074329D02*
X0176518Y0074329D01*
X0176518Y0074030D02*
X0175022Y0074030D01*
X0175022Y0073732D02*
X0176518Y0073732D01*
X0176518Y0073433D02*
X0175022Y0073433D01*
X0175022Y0073135D02*
X0176518Y0073135D01*
X0176518Y0072836D02*
X0175022Y0072836D01*
X0175022Y0072538D02*
X0176518Y0072538D01*
X0176518Y0072239D02*
X0175022Y0072239D01*
X0175022Y0071941D02*
X0176518Y0071941D01*
X0176518Y0071642D02*
X0175022Y0071642D01*
X0175022Y0071344D02*
X0176518Y0071344D01*
X0176518Y0071045D02*
X0175022Y0071045D01*
X0175022Y0070747D02*
X0176518Y0070747D01*
X0176518Y0070448D02*
X0175022Y0070448D01*
X0173134Y0070747D02*
X0169948Y0070747D01*
X0170235Y0070448D02*
X0172831Y0070448D01*
X0172214Y0070150D02*
X0170884Y0070150D01*
X0170453Y0071344D02*
X0168290Y0071344D01*
X0168290Y0071642D02*
X0170089Y0071642D01*
X0169946Y0071941D02*
X0168290Y0071941D01*
X0168290Y0072239D02*
X0169851Y0072239D01*
X0169825Y0072538D02*
X0168290Y0072538D01*
X0168290Y0072836D02*
X0169825Y0072836D01*
X0169825Y0073135D02*
X0168290Y0073135D01*
X0168290Y0073433D02*
X0169825Y0073433D01*
X0169825Y0073732D02*
X0168290Y0073732D01*
X0168290Y0074030D02*
X0169825Y0074030D01*
X0169825Y0074329D02*
X0168290Y0074329D01*
X0168290Y0074627D02*
X0169825Y0074627D01*
X0169825Y0074926D02*
X0168290Y0074926D01*
X0168290Y0075224D02*
X0169825Y0075224D01*
X0169825Y0075523D02*
X0168290Y0075523D01*
X0167463Y0075523D02*
X0166007Y0075523D01*
X0166007Y0075224D02*
X0167463Y0075224D01*
X0167463Y0074926D02*
X0162452Y0074926D01*
X0162626Y0075224D02*
X0165820Y0075224D01*
X0165496Y0075523D02*
X0162903Y0075523D01*
X0163544Y0075821D02*
X0164893Y0075821D01*
X0177973Y0075523D02*
X0179768Y0075523D01*
X0183566Y0075523D02*
X0185072Y0075523D01*
X0184983Y0075594D02*
X0184707Y0075752D01*
X0184471Y0075831D01*
X0184196Y0075909D01*
X0183644Y0075909D01*
X0183605Y0075870D01*
X0183566Y0075870D01*
X0183566Y0074453D01*
X0183605Y0074453D01*
X0183684Y0074492D01*
X0184117Y0074492D01*
X0184510Y0074453D01*
X0184825Y0074374D01*
X0185101Y0074217D01*
X0185298Y0073980D01*
X0185455Y0073705D01*
X0185534Y0073429D01*
X0185613Y0073075D01*
X0185613Y0070201D01*
X0187148Y0070201D01*
X0187148Y0074846D01*
X0187148Y0075516D01*
X0186951Y0075555D01*
X0186794Y0075594D01*
X0186597Y0075594D01*
X0186400Y0075634D01*
X0186243Y0075673D01*
X0186046Y0075713D01*
X0185849Y0075752D01*
X0185692Y0075791D01*
X0185692Y0074728D01*
X0185534Y0075004D01*
X0185377Y0075201D01*
X0185180Y0075437D01*
X0184983Y0075594D01*
X0185357Y0075224D02*
X0183566Y0075224D01*
X0183566Y0074926D02*
X0185579Y0074926D01*
X0185692Y0074926D02*
X0187148Y0074926D01*
X0187148Y0075224D02*
X0185692Y0075224D01*
X0185692Y0075523D02*
X0187113Y0075523D01*
X0187148Y0074627D02*
X0183566Y0074627D01*
X0183566Y0075821D02*
X0184499Y0075821D01*
X0184905Y0074329D02*
X0187148Y0074329D01*
X0187148Y0074030D02*
X0185256Y0074030D01*
X0185440Y0073732D02*
X0187148Y0073732D01*
X0187148Y0073433D02*
X0185533Y0073433D01*
X0185600Y0073135D02*
X0187148Y0073135D01*
X0187148Y0072836D02*
X0185613Y0072836D01*
X0185613Y0072538D02*
X0187148Y0072538D01*
X0187148Y0072239D02*
X0185613Y0072239D01*
X0185613Y0071941D02*
X0187148Y0071941D01*
X0187148Y0071642D02*
X0185613Y0071642D01*
X0185613Y0071344D02*
X0187148Y0071344D01*
X0187148Y0071045D02*
X0185613Y0071045D01*
X0185613Y0070747D02*
X0187148Y0070747D01*
X0187148Y0070448D02*
X0185613Y0070448D01*
X0187818Y0070240D02*
X0187818Y0070201D01*
X0189353Y0070201D01*
X0189353Y0070240D01*
X0189392Y0070280D01*
X0189392Y0070319D01*
X0189432Y0070358D01*
X0189432Y0070476D01*
X0189471Y0070516D01*
X0189471Y0070752D01*
X0189550Y0070634D01*
X0189668Y0070555D01*
X0189747Y0070476D01*
X0189865Y0070398D01*
X0189983Y0070358D01*
X0190101Y0070280D01*
X0190219Y0070240D01*
X0190337Y0070201D01*
X0190455Y0070161D01*
X0190573Y0070122D01*
X0190692Y0070122D01*
X0190810Y0070083D01*
X0190967Y0070083D01*
X0191085Y0070043D01*
X0191518Y0070043D01*
X0191715Y0070083D01*
X0191912Y0070083D01*
X0192070Y0070122D01*
X0192266Y0070201D01*
X0192424Y0070280D01*
X0192542Y0070358D01*
X0192699Y0070437D01*
X0192818Y0070555D01*
X0192896Y0070673D01*
X0193014Y0070831D01*
X0193093Y0070949D01*
X0193133Y0071146D01*
X0193211Y0071303D01*
X0193211Y0071500D01*
X0193251Y0071697D01*
X0193172Y0072130D01*
X0193054Y0072484D01*
X0192896Y0072760D01*
X0192621Y0072996D01*
X0192345Y0073154D01*
X0192030Y0073272D01*
X0191715Y0073350D01*
X0191361Y0073390D01*
X0191046Y0072563D01*
X0191164Y0072524D01*
X0191243Y0072484D01*
X0191282Y0072445D01*
X0191361Y0072406D01*
X0191440Y0072366D01*
X0191479Y0072327D01*
X0191558Y0072287D01*
X0191597Y0072209D01*
X0191636Y0072130D01*
X0191676Y0072051D01*
X0191676Y0071972D01*
X0191715Y0071894D01*
X0191715Y0071697D01*
X0191676Y0071579D01*
X0191676Y0071500D01*
X0191636Y0071421D01*
X0191597Y0071382D01*
X0191558Y0071303D01*
X0191479Y0071264D01*
X0191440Y0071224D01*
X0191361Y0071185D01*
X0191282Y0071146D01*
X0191203Y0071146D01*
X0191125Y0071106D01*
X0191046Y0071106D01*
X0190967Y0071067D01*
X0190770Y0071067D01*
X0190573Y0071106D01*
X0190377Y0071106D01*
X0190219Y0071185D01*
X0190062Y0071224D01*
X0189944Y0071303D01*
X0189865Y0071382D01*
X0189786Y0071500D01*
X0189707Y0071579D01*
X0189668Y0071697D01*
X0189629Y0071815D01*
X0189589Y0071894D01*
X0189550Y0072012D01*
X0189550Y0072917D01*
X0189589Y0072878D01*
X0189629Y0072839D01*
X0189707Y0072839D01*
X0189786Y0072799D01*
X0189865Y0072760D01*
X0189944Y0072760D01*
X0190022Y0072720D01*
X0190180Y0072720D01*
X0190377Y0073508D01*
X0190101Y0073587D01*
X0189865Y0073665D01*
X0189668Y0073783D01*
X0189550Y0073941D01*
X0189550Y0074374D01*
X0189589Y0074453D01*
X0189629Y0074531D01*
X0189668Y0074610D01*
X0189707Y0074650D01*
X0189747Y0074728D01*
X0189825Y0074768D01*
X0189904Y0074807D01*
X0189983Y0074846D01*
X0190062Y0074846D01*
X0190140Y0074886D01*
X0190849Y0074886D01*
X0190928Y0074846D01*
X0191007Y0074807D01*
X0191085Y0074768D01*
X0191164Y0074728D01*
X0191243Y0074689D01*
X0191282Y0074650D01*
X0191361Y0074571D01*
X0191400Y0074531D01*
X0191440Y0074453D01*
X0191479Y0074335D01*
X0191518Y0074256D01*
X0191518Y0074059D01*
X0193054Y0074059D01*
X0193014Y0074295D01*
X0192975Y0074531D01*
X0192896Y0074768D01*
X0192778Y0074925D01*
X0192660Y0075122D01*
X0192542Y0075280D01*
X0192385Y0075398D01*
X0192188Y0075516D01*
X0191991Y0075634D01*
X0191794Y0075713D01*
X0191597Y0075752D01*
X0191361Y0075831D01*
X0191125Y0075870D01*
X0190928Y0075909D01*
X0190022Y0075909D01*
X0189825Y0075870D01*
X0189589Y0075870D01*
X0189392Y0075831D01*
X0189196Y0075752D01*
X0188999Y0075713D01*
X0188802Y0075634D01*
X0188644Y0075516D01*
X0188487Y0075398D01*
X0188329Y0075280D01*
X0188211Y0075122D01*
X0188133Y0074965D01*
X0188054Y0074768D01*
X0188014Y0074571D01*
X0188014Y0071146D01*
X0187975Y0071067D01*
X0187975Y0070713D01*
X0187936Y0070634D01*
X0187936Y0070555D01*
X0187896Y0070476D01*
X0187896Y0070358D01*
X0187857Y0070280D01*
X0187818Y0070240D01*
X0187896Y0070448D02*
X0189432Y0070448D01*
X0189471Y0070747D02*
X0187975Y0070747D01*
X0187975Y0071045D02*
X0193112Y0071045D01*
X0193211Y0071344D02*
X0191578Y0071344D01*
X0191697Y0071642D02*
X0193240Y0071642D01*
X0193206Y0071941D02*
X0191692Y0071941D01*
X0191582Y0072239D02*
X0193135Y0072239D01*
X0193023Y0072538D02*
X0191122Y0072538D01*
X0191046Y0072563D02*
X0191361Y0073390D01*
X0191007Y0073429D01*
X0190652Y0073469D01*
X0190377Y0073508D01*
X0190180Y0072720D01*
X0190259Y0072681D01*
X0190337Y0072681D01*
X0190455Y0072642D01*
X0190613Y0072642D01*
X0190731Y0072602D01*
X0190888Y0072602D01*
X0190967Y0072563D01*
X0191046Y0072563D01*
X0191150Y0072836D02*
X0192807Y0072836D01*
X0192378Y0073135D02*
X0191264Y0073135D01*
X0190283Y0073135D01*
X0188014Y0073135D01*
X0188014Y0073433D02*
X0190358Y0073433D01*
X0190969Y0073433D01*
X0191150Y0072836D02*
X0190209Y0072836D01*
X0189712Y0072836D01*
X0189550Y0072836D02*
X0188014Y0072836D01*
X0188014Y0072538D02*
X0189550Y0072538D01*
X0189550Y0072239D02*
X0188014Y0072239D01*
X0188014Y0071941D02*
X0189574Y0071941D01*
X0189686Y0071642D02*
X0188014Y0071642D01*
X0188014Y0071344D02*
X0189903Y0071344D01*
X0189475Y0070747D02*
X0192951Y0070747D01*
X0192711Y0070448D02*
X0189789Y0070448D01*
X0190491Y0070150D02*
X0192139Y0070150D01*
X0194059Y0071344D02*
X0195887Y0071344D01*
X0195888Y0071343D02*
X0195652Y0071539D01*
X0195495Y0071736D01*
X0195377Y0072012D01*
X0194038Y0071382D01*
X0194274Y0070949D01*
X0194629Y0070594D01*
X0195062Y0070280D01*
X0195534Y0070122D01*
X0196125Y0070043D01*
X0196361Y0070083D01*
X0196597Y0070122D01*
X0196833Y0070161D01*
X0197070Y0070280D01*
X0197266Y0070398D01*
X0197463Y0070516D01*
X0197621Y0070713D01*
X0197778Y0070909D01*
X0197818Y0070909D01*
X0197818Y0066894D01*
X0197975Y0067051D01*
X0198172Y0067248D01*
X0198369Y0067406D01*
X0198566Y0067563D01*
X0198762Y0067720D01*
X0198959Y0067917D01*
X0199117Y0068075D01*
X0199314Y0068232D01*
X0199314Y0075516D01*
X0199156Y0075555D01*
X0198959Y0075594D01*
X0198762Y0075594D01*
X0198605Y0075634D01*
X0198408Y0075673D01*
X0198251Y0075713D01*
X0198054Y0075752D01*
X0197857Y0075791D01*
X0197857Y0075083D01*
X0197699Y0075280D01*
X0197542Y0075437D01*
X0197345Y0075594D01*
X0197148Y0075713D01*
X0196951Y0075831D01*
X0196715Y0075870D01*
X0196479Y0075909D01*
X0196203Y0075909D01*
X0195613Y0075870D01*
X0195062Y0075673D01*
X0194629Y0075398D01*
X0194274Y0075004D01*
X0193999Y0074571D01*
X0193841Y0074059D01*
X0193723Y0073508D01*
X0193684Y0072917D01*
X0195219Y0072957D01*
X0195219Y0073311D01*
X0195259Y0073626D01*
X0195377Y0073941D01*
X0195495Y0074217D01*
X0195692Y0074453D01*
X0195928Y0074610D01*
X0196203Y0074728D01*
X0196558Y0074768D01*
X0196873Y0074728D01*
X0197188Y0074610D01*
X0197385Y0074453D01*
X0197581Y0074217D01*
X0197699Y0073941D01*
X0197818Y0073626D01*
X0197857Y0073311D01*
X0197857Y0072642D01*
X0197778Y0072327D01*
X0197699Y0072012D01*
X0197581Y0071736D01*
X0197385Y0071539D01*
X0197148Y0071343D01*
X0196873Y0071264D01*
X0196518Y0071224D01*
X0196203Y0071264D01*
X0195888Y0071343D01*
X0195570Y0071642D02*
X0194591Y0071642D01*
X0193930Y0071642D01*
X0193841Y0071854D02*
X0194038Y0071382D01*
X0195377Y0072012D01*
X0195259Y0072327D01*
X0195219Y0072642D01*
X0195219Y0072957D01*
X0193684Y0072917D01*
X0193723Y0072366D01*
X0193841Y0071854D01*
X0193821Y0071941D02*
X0195226Y0071941D01*
X0195407Y0071941D01*
X0195291Y0072239D02*
X0193752Y0072239D01*
X0193711Y0072538D02*
X0195232Y0072538D01*
X0195219Y0072836D02*
X0193690Y0072836D01*
X0193698Y0073135D02*
X0195219Y0073135D01*
X0195234Y0073433D02*
X0193718Y0073433D01*
X0193771Y0073732D02*
X0195298Y0073732D01*
X0195415Y0074030D02*
X0193835Y0074030D01*
X0193924Y0074329D02*
X0195588Y0074329D01*
X0195968Y0074627D02*
X0194035Y0074627D01*
X0194225Y0074926D02*
X0199314Y0074926D01*
X0199314Y0075224D02*
X0197857Y0075224D01*
X0197744Y0075224D02*
X0194473Y0075224D01*
X0194825Y0075523D02*
X0197435Y0075523D01*
X0197857Y0075523D02*
X0199285Y0075523D01*
X0199314Y0074627D02*
X0197142Y0074627D01*
X0197488Y0074329D02*
X0199314Y0074329D01*
X0199314Y0074030D02*
X0197661Y0074030D01*
X0197778Y0073732D02*
X0199314Y0073732D01*
X0199314Y0073433D02*
X0197842Y0073433D01*
X0197857Y0073135D02*
X0199314Y0073135D01*
X0199314Y0072836D02*
X0197857Y0072836D01*
X0197831Y0072538D02*
X0199314Y0072538D01*
X0199314Y0072239D02*
X0197756Y0072239D01*
X0197669Y0071941D02*
X0199314Y0071941D01*
X0199314Y0071642D02*
X0197487Y0071642D01*
X0197150Y0071344D02*
X0199314Y0071344D01*
X0199314Y0071045D02*
X0194222Y0071045D01*
X0194476Y0070747D02*
X0197648Y0070747D01*
X0197818Y0070747D02*
X0199314Y0070747D01*
X0199314Y0070448D02*
X0197818Y0070448D01*
X0197818Y0070150D02*
X0199314Y0070150D01*
X0199314Y0069851D02*
X0197818Y0069851D01*
X0197818Y0069553D02*
X0199314Y0069553D01*
X0199314Y0069254D02*
X0197818Y0069254D01*
X0197818Y0068956D02*
X0199314Y0068956D01*
X0199314Y0068657D02*
X0197818Y0068657D01*
X0197818Y0068359D02*
X0199314Y0068359D01*
X0199102Y0068060D02*
X0197818Y0068060D01*
X0197818Y0067762D02*
X0198804Y0067762D01*
X0198441Y0067463D02*
X0197818Y0067463D01*
X0197818Y0067165D02*
X0198088Y0067165D01*
X0196763Y0070150D02*
X0195451Y0070150D01*
X0194830Y0070448D02*
X0197351Y0070448D01*
X0200022Y0071500D02*
X0200180Y0071067D01*
X0200416Y0070752D01*
X0200731Y0070476D01*
X0201125Y0070280D01*
X0201558Y0070161D01*
X0202030Y0070083D01*
X0202503Y0070043D01*
X0202975Y0070083D01*
X0203448Y0070161D01*
X0203881Y0070280D01*
X0204274Y0070476D01*
X0204589Y0070752D01*
X0204865Y0071106D01*
X0205022Y0071500D01*
X0205101Y0072012D01*
X0203841Y0072012D01*
X0203644Y0072012D01*
X0203644Y0071776D01*
X0203566Y0071579D01*
X0203448Y0071421D01*
X0203290Y0071303D01*
X0203133Y0071185D01*
X0202896Y0071146D01*
X0202699Y0071106D01*
X0202463Y0071067D01*
X0202306Y0071106D01*
X0202148Y0071106D01*
X0201991Y0071146D01*
X0201833Y0071224D01*
X0201676Y0071343D01*
X0201558Y0071461D01*
X0201518Y0071618D01*
X0201479Y0071776D01*
X0201518Y0071933D01*
X0201597Y0072091D01*
X0201755Y0072209D01*
X0201951Y0072327D01*
X0202188Y0072406D01*
X0202503Y0072484D01*
X0202818Y0072563D01*
X0203211Y0072642D01*
X0203566Y0072720D01*
X0203881Y0072839D01*
X0204156Y0072957D01*
X0204432Y0073114D01*
X0204668Y0073272D01*
X0204825Y0073508D01*
X0204944Y0073783D01*
X0204983Y0074138D01*
X0204944Y0074610D01*
X0204786Y0075004D01*
X0204510Y0075319D01*
X0204235Y0075555D01*
X0203841Y0075752D01*
X0203448Y0075831D01*
X0203014Y0075909D01*
X0202109Y0075909D01*
X0201676Y0075831D01*
X0201282Y0075713D01*
X0200928Y0075555D01*
X0200613Y0075319D01*
X0200377Y0075004D01*
X0200180Y0074610D01*
X0200101Y0074138D01*
X0201558Y0074138D01*
X0201597Y0074335D01*
X0201676Y0074531D01*
X0201755Y0074650D01*
X0201873Y0074728D01*
X0202030Y0074807D01*
X0202227Y0074886D01*
X0202896Y0074886D01*
X0203014Y0074846D01*
X0203172Y0074807D01*
X0203290Y0074768D01*
X0203369Y0074650D01*
X0203448Y0074531D01*
X0203448Y0074374D01*
X0203408Y0074217D01*
X0203290Y0074059D01*
X0203133Y0073941D01*
X0202896Y0073823D01*
X0202660Y0073744D01*
X0202345Y0073705D01*
X0202030Y0073626D01*
X0201715Y0073547D01*
X0201400Y0073469D01*
X0201046Y0073390D01*
X0200770Y0073232D01*
X0200495Y0073075D01*
X0200259Y0072878D01*
X0200101Y0072642D01*
X0199983Y0072366D01*
X0199944Y0072012D01*
X0200022Y0071500D01*
X0200000Y0071642D02*
X0201512Y0071642D01*
X0201522Y0071941D02*
X0199955Y0071941D01*
X0199969Y0072239D02*
X0201806Y0072239D01*
X0201675Y0071344D02*
X0200079Y0071344D01*
X0200196Y0071045D02*
X0204817Y0071045D01*
X0204960Y0071344D02*
X0203344Y0071344D01*
X0203591Y0071642D02*
X0205044Y0071642D01*
X0205090Y0071941D02*
X0203644Y0071941D01*
X0203874Y0072836D02*
X0200231Y0072836D01*
X0200056Y0072538D02*
X0202717Y0072538D01*
X0202562Y0073732D02*
X0204921Y0073732D01*
X0204971Y0074030D02*
X0203252Y0074030D01*
X0203436Y0074329D02*
X0204967Y0074329D01*
X0204937Y0074627D02*
X0203384Y0074627D01*
X0203494Y0075821D02*
X0201645Y0075821D01*
X0200885Y0075523D02*
X0204273Y0075523D01*
X0204593Y0075224D02*
X0200542Y0075224D01*
X0200338Y0074926D02*
X0204817Y0074926D01*
X0204776Y0073433D02*
X0201242Y0073433D01*
X0200600Y0073135D02*
X0204463Y0073135D01*
X0201740Y0074627D02*
X0200188Y0074627D01*
X0200133Y0074329D02*
X0201596Y0074329D01*
X0196967Y0075821D02*
X0195476Y0075821D01*
X0192943Y0074627D02*
X0191304Y0074627D01*
X0191482Y0074329D02*
X0193009Y0074329D01*
X0192778Y0074926D02*
X0188117Y0074926D01*
X0188026Y0074627D02*
X0189685Y0074627D01*
X0189550Y0074329D02*
X0188014Y0074329D01*
X0188014Y0074030D02*
X0189550Y0074030D01*
X0189754Y0073732D02*
X0188014Y0073732D01*
X0188288Y0075224D02*
X0192583Y0075224D01*
X0192176Y0075523D02*
X0188654Y0075523D01*
X0189369Y0075821D02*
X0191389Y0075821D01*
X0200422Y0070747D02*
X0204583Y0070747D01*
X0204218Y0070448D02*
X0200787Y0070448D01*
X0201628Y0070150D02*
X0203377Y0070150D01*
M02*
