G75*
%MOIN*%
%OFA0B0*%
%FSLAX25Y25*%
%IPPOS*%
%LPD*%
%AMOC8*
5,1,8,0,0,1.08239X$1,22.5*
%
%ADD10R,0.07874X0.04724*%
%ADD11R,0.05315X0.02362*%
%ADD12R,0.04331X0.03937*%
%ADD13R,0.13000X0.08800*%
%ADD14R,0.07874X0.19685*%
%ADD15R,0.06693X0.15748*%
%ADD16R,0.01476X0.02362*%
D10*
X0138865Y0078976D03*
X0138865Y0101024D03*
X0227802Y0101024D03*
X0227802Y0078976D03*
D11*
X0213333Y0084094D03*
X0213333Y0088031D03*
X0213333Y0091969D03*
X0213333Y0095906D03*
X0153333Y0095906D03*
X0153333Y0091969D03*
X0153333Y0088031D03*
X0153333Y0084094D03*
D12*
X0162487Y0065000D03*
X0169180Y0065000D03*
X0169180Y0075000D03*
X0162487Y0075000D03*
X0162487Y0085000D03*
X0169180Y0085000D03*
X0197487Y0085000D03*
X0204180Y0085000D03*
X0204180Y0075000D03*
X0197487Y0075000D03*
X0197487Y0065000D03*
X0204180Y0065000D03*
X0219987Y0107500D03*
X0226680Y0107500D03*
X0226680Y0115000D03*
X0219987Y0115000D03*
X0146680Y0115000D03*
X0139987Y0115000D03*
X0139987Y0107500D03*
X0146680Y0107500D03*
D13*
X0183333Y0062500D03*
D14*
X0203609Y0099000D03*
D15*
X0163648Y0099000D03*
D16*
X0177034Y0081831D03*
X0180184Y0081831D03*
X0183333Y0081831D03*
X0186483Y0081831D03*
X0189633Y0081831D03*
X0189633Y0073169D03*
X0186483Y0073169D03*
X0183333Y0073169D03*
X0180184Y0073169D03*
X0177034Y0073169D03*
M02*
