G75*
%MOIN*%
%OFA0B0*%
%FSLAX25Y25*%
%IPPOS*%
%LPD*%
%AMOC8*
5,1,8,0,0,1.08239X$1,22.5*
%
%ADD10C,0.00800*%
%ADD11C,0.00000*%
D10*
X0133333Y0040000D02*
X0233333Y0040000D01*
X0233333Y0140000D01*
X0133333Y0140000D01*
X0133333Y0040000D01*
D11*
X0136833Y0130000D02*
X0136835Y0130161D01*
X0136841Y0130321D01*
X0136851Y0130482D01*
X0136865Y0130642D01*
X0136883Y0130802D01*
X0136904Y0130961D01*
X0136930Y0131120D01*
X0136960Y0131278D01*
X0136993Y0131435D01*
X0137031Y0131592D01*
X0137072Y0131747D01*
X0137117Y0131901D01*
X0137166Y0132054D01*
X0137219Y0132206D01*
X0137275Y0132357D01*
X0137336Y0132506D01*
X0137399Y0132654D01*
X0137467Y0132800D01*
X0137538Y0132944D01*
X0137612Y0133086D01*
X0137690Y0133227D01*
X0137772Y0133365D01*
X0137857Y0133502D01*
X0137945Y0133636D01*
X0138037Y0133768D01*
X0138132Y0133898D01*
X0138230Y0134026D01*
X0138331Y0134151D01*
X0138435Y0134273D01*
X0138542Y0134393D01*
X0138652Y0134510D01*
X0138765Y0134625D01*
X0138881Y0134736D01*
X0139000Y0134845D01*
X0139121Y0134950D01*
X0139245Y0135053D01*
X0139371Y0135153D01*
X0139499Y0135249D01*
X0139630Y0135342D01*
X0139764Y0135432D01*
X0139899Y0135519D01*
X0140037Y0135602D01*
X0140176Y0135682D01*
X0140318Y0135758D01*
X0140461Y0135831D01*
X0140606Y0135900D01*
X0140753Y0135966D01*
X0140901Y0136028D01*
X0141051Y0136086D01*
X0141202Y0136141D01*
X0141355Y0136192D01*
X0141509Y0136239D01*
X0141664Y0136282D01*
X0141820Y0136321D01*
X0141976Y0136357D01*
X0142134Y0136388D01*
X0142292Y0136416D01*
X0142451Y0136440D01*
X0142611Y0136460D01*
X0142771Y0136476D01*
X0142931Y0136488D01*
X0143092Y0136496D01*
X0143253Y0136500D01*
X0143413Y0136500D01*
X0143574Y0136496D01*
X0143735Y0136488D01*
X0143895Y0136476D01*
X0144055Y0136460D01*
X0144215Y0136440D01*
X0144374Y0136416D01*
X0144532Y0136388D01*
X0144690Y0136357D01*
X0144846Y0136321D01*
X0145002Y0136282D01*
X0145157Y0136239D01*
X0145311Y0136192D01*
X0145464Y0136141D01*
X0145615Y0136086D01*
X0145765Y0136028D01*
X0145913Y0135966D01*
X0146060Y0135900D01*
X0146205Y0135831D01*
X0146348Y0135758D01*
X0146490Y0135682D01*
X0146629Y0135602D01*
X0146767Y0135519D01*
X0146902Y0135432D01*
X0147036Y0135342D01*
X0147167Y0135249D01*
X0147295Y0135153D01*
X0147421Y0135053D01*
X0147545Y0134950D01*
X0147666Y0134845D01*
X0147785Y0134736D01*
X0147901Y0134625D01*
X0148014Y0134510D01*
X0148124Y0134393D01*
X0148231Y0134273D01*
X0148335Y0134151D01*
X0148436Y0134026D01*
X0148534Y0133898D01*
X0148629Y0133768D01*
X0148721Y0133636D01*
X0148809Y0133502D01*
X0148894Y0133365D01*
X0148976Y0133227D01*
X0149054Y0133086D01*
X0149128Y0132944D01*
X0149199Y0132800D01*
X0149267Y0132654D01*
X0149330Y0132506D01*
X0149391Y0132357D01*
X0149447Y0132206D01*
X0149500Y0132054D01*
X0149549Y0131901D01*
X0149594Y0131747D01*
X0149635Y0131592D01*
X0149673Y0131435D01*
X0149706Y0131278D01*
X0149736Y0131120D01*
X0149762Y0130961D01*
X0149783Y0130802D01*
X0149801Y0130642D01*
X0149815Y0130482D01*
X0149825Y0130321D01*
X0149831Y0130161D01*
X0149833Y0130000D01*
X0149831Y0129839D01*
X0149825Y0129679D01*
X0149815Y0129518D01*
X0149801Y0129358D01*
X0149783Y0129198D01*
X0149762Y0129039D01*
X0149736Y0128880D01*
X0149706Y0128722D01*
X0149673Y0128565D01*
X0149635Y0128408D01*
X0149594Y0128253D01*
X0149549Y0128099D01*
X0149500Y0127946D01*
X0149447Y0127794D01*
X0149391Y0127643D01*
X0149330Y0127494D01*
X0149267Y0127346D01*
X0149199Y0127200D01*
X0149128Y0127056D01*
X0149054Y0126914D01*
X0148976Y0126773D01*
X0148894Y0126635D01*
X0148809Y0126498D01*
X0148721Y0126364D01*
X0148629Y0126232D01*
X0148534Y0126102D01*
X0148436Y0125974D01*
X0148335Y0125849D01*
X0148231Y0125727D01*
X0148124Y0125607D01*
X0148014Y0125490D01*
X0147901Y0125375D01*
X0147785Y0125264D01*
X0147666Y0125155D01*
X0147545Y0125050D01*
X0147421Y0124947D01*
X0147295Y0124847D01*
X0147167Y0124751D01*
X0147036Y0124658D01*
X0146902Y0124568D01*
X0146767Y0124481D01*
X0146629Y0124398D01*
X0146490Y0124318D01*
X0146348Y0124242D01*
X0146205Y0124169D01*
X0146060Y0124100D01*
X0145913Y0124034D01*
X0145765Y0123972D01*
X0145615Y0123914D01*
X0145464Y0123859D01*
X0145311Y0123808D01*
X0145157Y0123761D01*
X0145002Y0123718D01*
X0144846Y0123679D01*
X0144690Y0123643D01*
X0144532Y0123612D01*
X0144374Y0123584D01*
X0144215Y0123560D01*
X0144055Y0123540D01*
X0143895Y0123524D01*
X0143735Y0123512D01*
X0143574Y0123504D01*
X0143413Y0123500D01*
X0143253Y0123500D01*
X0143092Y0123504D01*
X0142931Y0123512D01*
X0142771Y0123524D01*
X0142611Y0123540D01*
X0142451Y0123560D01*
X0142292Y0123584D01*
X0142134Y0123612D01*
X0141976Y0123643D01*
X0141820Y0123679D01*
X0141664Y0123718D01*
X0141509Y0123761D01*
X0141355Y0123808D01*
X0141202Y0123859D01*
X0141051Y0123914D01*
X0140901Y0123972D01*
X0140753Y0124034D01*
X0140606Y0124100D01*
X0140461Y0124169D01*
X0140318Y0124242D01*
X0140176Y0124318D01*
X0140037Y0124398D01*
X0139899Y0124481D01*
X0139764Y0124568D01*
X0139630Y0124658D01*
X0139499Y0124751D01*
X0139371Y0124847D01*
X0139245Y0124947D01*
X0139121Y0125050D01*
X0139000Y0125155D01*
X0138881Y0125264D01*
X0138765Y0125375D01*
X0138652Y0125490D01*
X0138542Y0125607D01*
X0138435Y0125727D01*
X0138331Y0125849D01*
X0138230Y0125974D01*
X0138132Y0126102D01*
X0138037Y0126232D01*
X0137945Y0126364D01*
X0137857Y0126498D01*
X0137772Y0126635D01*
X0137690Y0126773D01*
X0137612Y0126914D01*
X0137538Y0127056D01*
X0137467Y0127200D01*
X0137399Y0127346D01*
X0137336Y0127494D01*
X0137275Y0127643D01*
X0137219Y0127794D01*
X0137166Y0127946D01*
X0137117Y0128099D01*
X0137072Y0128253D01*
X0137031Y0128408D01*
X0136993Y0128565D01*
X0136960Y0128722D01*
X0136930Y0128880D01*
X0136904Y0129039D01*
X0136883Y0129198D01*
X0136865Y0129358D01*
X0136851Y0129518D01*
X0136841Y0129679D01*
X0136835Y0129839D01*
X0136833Y0130000D01*
X0216833Y0130000D02*
X0216835Y0130161D01*
X0216841Y0130321D01*
X0216851Y0130482D01*
X0216865Y0130642D01*
X0216883Y0130802D01*
X0216904Y0130961D01*
X0216930Y0131120D01*
X0216960Y0131278D01*
X0216993Y0131435D01*
X0217031Y0131592D01*
X0217072Y0131747D01*
X0217117Y0131901D01*
X0217166Y0132054D01*
X0217219Y0132206D01*
X0217275Y0132357D01*
X0217336Y0132506D01*
X0217399Y0132654D01*
X0217467Y0132800D01*
X0217538Y0132944D01*
X0217612Y0133086D01*
X0217690Y0133227D01*
X0217772Y0133365D01*
X0217857Y0133502D01*
X0217945Y0133636D01*
X0218037Y0133768D01*
X0218132Y0133898D01*
X0218230Y0134026D01*
X0218331Y0134151D01*
X0218435Y0134273D01*
X0218542Y0134393D01*
X0218652Y0134510D01*
X0218765Y0134625D01*
X0218881Y0134736D01*
X0219000Y0134845D01*
X0219121Y0134950D01*
X0219245Y0135053D01*
X0219371Y0135153D01*
X0219499Y0135249D01*
X0219630Y0135342D01*
X0219764Y0135432D01*
X0219899Y0135519D01*
X0220037Y0135602D01*
X0220176Y0135682D01*
X0220318Y0135758D01*
X0220461Y0135831D01*
X0220606Y0135900D01*
X0220753Y0135966D01*
X0220901Y0136028D01*
X0221051Y0136086D01*
X0221202Y0136141D01*
X0221355Y0136192D01*
X0221509Y0136239D01*
X0221664Y0136282D01*
X0221820Y0136321D01*
X0221976Y0136357D01*
X0222134Y0136388D01*
X0222292Y0136416D01*
X0222451Y0136440D01*
X0222611Y0136460D01*
X0222771Y0136476D01*
X0222931Y0136488D01*
X0223092Y0136496D01*
X0223253Y0136500D01*
X0223413Y0136500D01*
X0223574Y0136496D01*
X0223735Y0136488D01*
X0223895Y0136476D01*
X0224055Y0136460D01*
X0224215Y0136440D01*
X0224374Y0136416D01*
X0224532Y0136388D01*
X0224690Y0136357D01*
X0224846Y0136321D01*
X0225002Y0136282D01*
X0225157Y0136239D01*
X0225311Y0136192D01*
X0225464Y0136141D01*
X0225615Y0136086D01*
X0225765Y0136028D01*
X0225913Y0135966D01*
X0226060Y0135900D01*
X0226205Y0135831D01*
X0226348Y0135758D01*
X0226490Y0135682D01*
X0226629Y0135602D01*
X0226767Y0135519D01*
X0226902Y0135432D01*
X0227036Y0135342D01*
X0227167Y0135249D01*
X0227295Y0135153D01*
X0227421Y0135053D01*
X0227545Y0134950D01*
X0227666Y0134845D01*
X0227785Y0134736D01*
X0227901Y0134625D01*
X0228014Y0134510D01*
X0228124Y0134393D01*
X0228231Y0134273D01*
X0228335Y0134151D01*
X0228436Y0134026D01*
X0228534Y0133898D01*
X0228629Y0133768D01*
X0228721Y0133636D01*
X0228809Y0133502D01*
X0228894Y0133365D01*
X0228976Y0133227D01*
X0229054Y0133086D01*
X0229128Y0132944D01*
X0229199Y0132800D01*
X0229267Y0132654D01*
X0229330Y0132506D01*
X0229391Y0132357D01*
X0229447Y0132206D01*
X0229500Y0132054D01*
X0229549Y0131901D01*
X0229594Y0131747D01*
X0229635Y0131592D01*
X0229673Y0131435D01*
X0229706Y0131278D01*
X0229736Y0131120D01*
X0229762Y0130961D01*
X0229783Y0130802D01*
X0229801Y0130642D01*
X0229815Y0130482D01*
X0229825Y0130321D01*
X0229831Y0130161D01*
X0229833Y0130000D01*
X0229831Y0129839D01*
X0229825Y0129679D01*
X0229815Y0129518D01*
X0229801Y0129358D01*
X0229783Y0129198D01*
X0229762Y0129039D01*
X0229736Y0128880D01*
X0229706Y0128722D01*
X0229673Y0128565D01*
X0229635Y0128408D01*
X0229594Y0128253D01*
X0229549Y0128099D01*
X0229500Y0127946D01*
X0229447Y0127794D01*
X0229391Y0127643D01*
X0229330Y0127494D01*
X0229267Y0127346D01*
X0229199Y0127200D01*
X0229128Y0127056D01*
X0229054Y0126914D01*
X0228976Y0126773D01*
X0228894Y0126635D01*
X0228809Y0126498D01*
X0228721Y0126364D01*
X0228629Y0126232D01*
X0228534Y0126102D01*
X0228436Y0125974D01*
X0228335Y0125849D01*
X0228231Y0125727D01*
X0228124Y0125607D01*
X0228014Y0125490D01*
X0227901Y0125375D01*
X0227785Y0125264D01*
X0227666Y0125155D01*
X0227545Y0125050D01*
X0227421Y0124947D01*
X0227295Y0124847D01*
X0227167Y0124751D01*
X0227036Y0124658D01*
X0226902Y0124568D01*
X0226767Y0124481D01*
X0226629Y0124398D01*
X0226490Y0124318D01*
X0226348Y0124242D01*
X0226205Y0124169D01*
X0226060Y0124100D01*
X0225913Y0124034D01*
X0225765Y0123972D01*
X0225615Y0123914D01*
X0225464Y0123859D01*
X0225311Y0123808D01*
X0225157Y0123761D01*
X0225002Y0123718D01*
X0224846Y0123679D01*
X0224690Y0123643D01*
X0224532Y0123612D01*
X0224374Y0123584D01*
X0224215Y0123560D01*
X0224055Y0123540D01*
X0223895Y0123524D01*
X0223735Y0123512D01*
X0223574Y0123504D01*
X0223413Y0123500D01*
X0223253Y0123500D01*
X0223092Y0123504D01*
X0222931Y0123512D01*
X0222771Y0123524D01*
X0222611Y0123540D01*
X0222451Y0123560D01*
X0222292Y0123584D01*
X0222134Y0123612D01*
X0221976Y0123643D01*
X0221820Y0123679D01*
X0221664Y0123718D01*
X0221509Y0123761D01*
X0221355Y0123808D01*
X0221202Y0123859D01*
X0221051Y0123914D01*
X0220901Y0123972D01*
X0220753Y0124034D01*
X0220606Y0124100D01*
X0220461Y0124169D01*
X0220318Y0124242D01*
X0220176Y0124318D01*
X0220037Y0124398D01*
X0219899Y0124481D01*
X0219764Y0124568D01*
X0219630Y0124658D01*
X0219499Y0124751D01*
X0219371Y0124847D01*
X0219245Y0124947D01*
X0219121Y0125050D01*
X0219000Y0125155D01*
X0218881Y0125264D01*
X0218765Y0125375D01*
X0218652Y0125490D01*
X0218542Y0125607D01*
X0218435Y0125727D01*
X0218331Y0125849D01*
X0218230Y0125974D01*
X0218132Y0126102D01*
X0218037Y0126232D01*
X0217945Y0126364D01*
X0217857Y0126498D01*
X0217772Y0126635D01*
X0217690Y0126773D01*
X0217612Y0126914D01*
X0217538Y0127056D01*
X0217467Y0127200D01*
X0217399Y0127346D01*
X0217336Y0127494D01*
X0217275Y0127643D01*
X0217219Y0127794D01*
X0217166Y0127946D01*
X0217117Y0128099D01*
X0217072Y0128253D01*
X0217031Y0128408D01*
X0216993Y0128565D01*
X0216960Y0128722D01*
X0216930Y0128880D01*
X0216904Y0129039D01*
X0216883Y0129198D01*
X0216865Y0129358D01*
X0216851Y0129518D01*
X0216841Y0129679D01*
X0216835Y0129839D01*
X0216833Y0130000D01*
M02*
