%
M48
M72
T01C0.0150
T02C0.0400
T03C0.1300
%
T01
X6150Y5650
X7150Y6150
X8150Y6150
X8650Y4650
X10150Y5150
X10650Y6100
X10250Y6500
X9650Y6650
X8650Y7650
X7650Y8150
X7020Y8550
X7350Y9150
X8150Y9150
X6150Y8150
X5400Y6650
X5150Y6150
X7150Y4150
X12150Y5650
X15350Y6150
X15600Y6650
X16350Y5650
X17350Y6150
X18350Y6150
X18850Y4650
X20350Y5150
X20850Y6100
X20450Y6500
X19850Y6650
X18850Y7650
X17850Y8150
X17220Y8550
X17550Y9150
X18350Y9150
X16350Y8150
X17350Y4150
X22350Y5650
X25550Y6150
X25800Y6650
X26550Y5650
X27550Y6150
X28550Y6150
X29050Y4650
X30550Y5150
X31050Y6100
X30650Y6500
X30050Y6650
X29050Y7650
X28050Y8150
X27420Y8550
X27750Y9150
X28550Y9150
X26550Y8150
X27550Y4150
X32550Y5650
X27550Y14350
X29050Y14850
X30550Y15350
X31050Y16300
X30650Y16700
X30050Y16850
X29050Y17850
X28050Y18350
X27420Y18750
X27750Y19350
X28550Y19350
X26550Y18350
X25800Y16850
X25550Y16350
X26550Y15850
X27550Y16350
X28550Y16350
X32550Y15850
X27550Y24550
X29050Y25050
X30550Y25550
X31050Y26500
X30650Y26900
X30050Y27050
X29050Y28050
X28050Y28550
X27420Y28950
X27750Y29550
X28550Y29550
X26550Y28550
X25800Y27050
X25550Y26550
X26550Y26050
X27550Y26550
X28550Y26550
X32550Y26050
X22350Y26050
X20850Y26500
X20450Y26900
X19850Y27050
X18850Y28050
X17850Y28550
X17220Y28950
X17550Y29550
X18350Y29550
X16350Y28550
X15600Y27050
X15350Y26550
X16350Y26050
X17350Y26550
X18350Y26550
X18850Y25050
X20350Y25550
X17350Y24550
X12150Y26050
X10650Y26500
X10250Y26900
X9650Y27050
X8650Y28050
X7650Y28550
X7020Y28950
X7350Y29550
X8150Y29550
X6150Y28550
X5400Y27050
X5150Y26550
X6150Y26050
X7150Y26550
X8150Y26550
X8650Y25050
X10150Y25550
X7150Y24550
X7350Y19350
X7020Y18750
X7650Y18350
X8150Y19350
X8650Y17850
X9650Y16850
X10250Y16700
X10650Y16300
X10150Y15350
X8650Y14850
X7150Y14350
X6150Y15850
X7150Y16350
X8150Y16350
X6150Y18350
X5400Y16850
X5150Y16350
X12150Y15850
X15350Y16350
X15600Y16850
X16350Y15850
X17350Y16350
X18350Y16350
X18850Y17850
X17850Y18350
X17220Y18750
X17550Y19350
X18350Y19350
X16350Y18350
X19850Y16850
X20450Y16700
X20850Y16300
X20350Y15350
X18850Y14850
X17350Y14350
X22350Y15850
T02
X4650Y3150
X5650Y3150
X6650Y3150
X7650Y3150
X8650Y3150
X9650Y3150
X10650Y3150
X14850Y3150
X15850Y3150
X16850Y3150
X17850Y3150
X18850Y3150
X19850Y3150
X20850Y3150
X25050Y3150
X26050Y3150
X27050Y3150
X28050Y3150
X29050Y3150
X30050Y3150
X31050Y3150
X31050Y13350
X30050Y13350
X29050Y13350
X28050Y13350
X27050Y13350
X26050Y13350
X25050Y13350
X20850Y13350
X19850Y13350
X18850Y13350
X17850Y13350
X16850Y13350
X15850Y13350
X14850Y13350
X10650Y13350
X9650Y13350
X8650Y13350
X7650Y13350
X6650Y13350
X5650Y13350
X4650Y13350
X4650Y23550
X5650Y23550
X6650Y23550
X7650Y23550
X8650Y23550
X9650Y23550
X10650Y23550
X14850Y23550
X15850Y23550
X16850Y23550
X17850Y23550
X18850Y23550
X19850Y23550
X20850Y23550
X25050Y23550
X26050Y23550
X27050Y23550
X28050Y23550
X29050Y23550
X30050Y23550
X31050Y23550
T03
X32050Y21850
X24050Y21850
X21850Y21850
X13850Y21850
X11650Y21850
X3650Y21850
X3650Y11650
X11650Y11650
X13850Y11650
X21850Y11650
X24050Y11650
X32050Y11650
X32050Y32050
X24050Y32050
X21850Y32050
X13850Y32050
X11650Y32050
X3650Y32050
M30
