G75*
%MOIN*%
%OFA0B0*%
%FSLAX25Y25*%
%IPPOS*%
%LPD*%
%AMOC8*
5,1,8,0,0,1.08239X$1,22.5*
%
%ADD10R,0.07874X0.04724*%
%ADD11R,0.05315X0.02362*%
%ADD12R,0.04331X0.03937*%
%ADD13R,0.13000X0.08800*%
%ADD14R,0.07874X0.19685*%
%ADD15R,0.06693X0.15748*%
%ADD16R,0.01969X0.03150*%
%ADD17R,0.03937X0.04331*%
D10*
X0032031Y0065476D03*
X0032031Y0087524D03*
X0032031Y0167476D03*
X0032031Y0189524D03*
X0032031Y0269476D03*
X0032031Y0291524D03*
X0120969Y0291524D03*
X0134031Y0291524D03*
X0134031Y0269476D03*
X0120969Y0269476D03*
X0120969Y0189524D03*
X0134031Y0189524D03*
X0134031Y0167476D03*
X0120969Y0167476D03*
X0120969Y0087524D03*
X0134031Y0087524D03*
X0134031Y0065476D03*
X0120969Y0065476D03*
X0222969Y0065476D03*
X0236031Y0065476D03*
X0236031Y0087524D03*
X0222969Y0087524D03*
X0222969Y0167476D03*
X0236031Y0167476D03*
X0236031Y0189524D03*
X0222969Y0189524D03*
X0222969Y0269476D03*
X0236031Y0269476D03*
X0236031Y0291524D03*
X0222969Y0291524D03*
X0324969Y0291524D03*
X0324969Y0269476D03*
X0324969Y0189524D03*
X0324969Y0167476D03*
X0324969Y0087524D03*
X0324969Y0065476D03*
D11*
X0310500Y0070594D03*
X0310500Y0074531D03*
X0310500Y0078469D03*
X0310500Y0082406D03*
X0250500Y0082406D03*
X0250500Y0078469D03*
X0250500Y0074531D03*
X0250500Y0070594D03*
X0208500Y0070594D03*
X0208500Y0074531D03*
X0208500Y0078469D03*
X0208500Y0082406D03*
X0148500Y0082406D03*
X0148500Y0078469D03*
X0148500Y0074531D03*
X0148500Y0070594D03*
X0106500Y0070594D03*
X0106500Y0074531D03*
X0106500Y0078469D03*
X0106500Y0082406D03*
X0046500Y0082406D03*
X0046500Y0078469D03*
X0046500Y0074531D03*
X0046500Y0070594D03*
X0046500Y0172594D03*
X0046500Y0176531D03*
X0046500Y0180469D03*
X0046500Y0184406D03*
X0106500Y0184406D03*
X0106500Y0180469D03*
X0106500Y0176531D03*
X0106500Y0172594D03*
X0148500Y0172594D03*
X0148500Y0176531D03*
X0148500Y0180469D03*
X0148500Y0184406D03*
X0208500Y0184406D03*
X0208500Y0180469D03*
X0208500Y0176531D03*
X0208500Y0172594D03*
X0250500Y0172594D03*
X0250500Y0176531D03*
X0250500Y0180469D03*
X0250500Y0184406D03*
X0310500Y0184406D03*
X0310500Y0180469D03*
X0310500Y0176531D03*
X0310500Y0172594D03*
X0310500Y0274594D03*
X0310500Y0278531D03*
X0310500Y0282469D03*
X0310500Y0286406D03*
X0250500Y0286406D03*
X0250500Y0282469D03*
X0250500Y0278531D03*
X0250500Y0274594D03*
X0208500Y0274594D03*
X0208500Y0278531D03*
X0208500Y0282469D03*
X0208500Y0286406D03*
X0148500Y0286406D03*
X0148500Y0282469D03*
X0148500Y0278531D03*
X0148500Y0274594D03*
X0106500Y0274594D03*
X0106500Y0278531D03*
X0106500Y0282469D03*
X0106500Y0286406D03*
X0046500Y0286406D03*
X0046500Y0282469D03*
X0046500Y0278531D03*
X0046500Y0274594D03*
D12*
X0058154Y0051500D03*
X0064846Y0051500D03*
X0064846Y0061000D03*
X0058154Y0061000D03*
X0088154Y0061000D03*
X0094846Y0061000D03*
X0094846Y0051500D03*
X0088154Y0051500D03*
X0160154Y0051500D03*
X0166846Y0051500D03*
X0166846Y0061000D03*
X0160154Y0061000D03*
X0190154Y0061000D03*
X0196846Y0061000D03*
X0196846Y0051500D03*
X0190154Y0051500D03*
X0262154Y0051500D03*
X0268846Y0051500D03*
X0268846Y0061000D03*
X0262154Y0061000D03*
X0292154Y0061000D03*
X0298846Y0061000D03*
X0298846Y0051500D03*
X0292154Y0051500D03*
X0292154Y0153500D03*
X0298846Y0153500D03*
X0298846Y0163000D03*
X0292154Y0163000D03*
X0268846Y0163000D03*
X0262154Y0163000D03*
X0262154Y0153500D03*
X0268846Y0153500D03*
X0196846Y0153500D03*
X0190154Y0153500D03*
X0190154Y0163000D03*
X0196846Y0163000D03*
X0166846Y0163000D03*
X0160154Y0163000D03*
X0160154Y0153500D03*
X0166846Y0153500D03*
X0094846Y0153500D03*
X0088154Y0153500D03*
X0088154Y0163000D03*
X0094846Y0163000D03*
X0064846Y0163000D03*
X0058154Y0163000D03*
X0058154Y0153500D03*
X0064846Y0153500D03*
X0064846Y0255500D03*
X0058154Y0255500D03*
X0058154Y0265000D03*
X0064846Y0265000D03*
X0088154Y0265000D03*
X0094846Y0265000D03*
X0094846Y0255500D03*
X0088154Y0255500D03*
X0160154Y0255500D03*
X0166846Y0255500D03*
X0166846Y0265000D03*
X0160154Y0265000D03*
X0190154Y0265000D03*
X0196846Y0265000D03*
X0196846Y0255500D03*
X0190154Y0255500D03*
X0262154Y0255500D03*
X0268846Y0255500D03*
X0268846Y0265000D03*
X0262154Y0265000D03*
X0292154Y0265000D03*
X0298846Y0265000D03*
X0298846Y0255500D03*
X0292154Y0255500D03*
D13*
X0280500Y0255500D03*
X0178500Y0255500D03*
X0076500Y0255500D03*
X0076500Y0153500D03*
X0178500Y0153500D03*
X0280500Y0153500D03*
X0280500Y0051500D03*
X0178500Y0051500D03*
X0076500Y0051500D03*
D14*
X0096776Y0094000D03*
X0198776Y0094000D03*
X0300776Y0094000D03*
X0300776Y0196000D03*
X0198776Y0196000D03*
X0096776Y0196000D03*
X0096776Y0298000D03*
X0198776Y0298000D03*
X0300776Y0298000D03*
D15*
X0260815Y0298000D03*
X0158815Y0298000D03*
X0056815Y0298000D03*
X0056815Y0196000D03*
X0158815Y0196000D03*
X0260815Y0196000D03*
X0260815Y0094000D03*
X0158815Y0094000D03*
X0056815Y0094000D03*
D16*
X0070201Y0075831D03*
X0073350Y0075831D03*
X0076500Y0075831D03*
X0079650Y0075831D03*
X0082799Y0075831D03*
X0082799Y0067169D03*
X0079650Y0067169D03*
X0076500Y0067169D03*
X0073350Y0067169D03*
X0070201Y0067169D03*
X0172201Y0067169D03*
X0175350Y0067169D03*
X0178500Y0067169D03*
X0181650Y0067169D03*
X0184799Y0067169D03*
X0184799Y0075831D03*
X0181650Y0075831D03*
X0178500Y0075831D03*
X0175350Y0075831D03*
X0172201Y0075831D03*
X0172201Y0169169D03*
X0175350Y0169169D03*
X0178500Y0169169D03*
X0181650Y0169169D03*
X0184799Y0169169D03*
X0184799Y0177831D03*
X0181650Y0177831D03*
X0178500Y0177831D03*
X0175350Y0177831D03*
X0172201Y0177831D03*
X0082799Y0177831D03*
X0079650Y0177831D03*
X0076500Y0177831D03*
X0073350Y0177831D03*
X0070201Y0177831D03*
X0070201Y0169169D03*
X0073350Y0169169D03*
X0076500Y0169169D03*
X0079650Y0169169D03*
X0082799Y0169169D03*
X0082799Y0271169D03*
X0079650Y0271169D03*
X0076500Y0271169D03*
X0073350Y0271169D03*
X0070201Y0271169D03*
X0070201Y0279831D03*
X0073350Y0279831D03*
X0076500Y0279831D03*
X0079650Y0279831D03*
X0082799Y0279831D03*
X0172201Y0279831D03*
X0175350Y0279831D03*
X0178500Y0279831D03*
X0181650Y0279831D03*
X0184799Y0279831D03*
X0184799Y0271169D03*
X0181650Y0271169D03*
X0178500Y0271169D03*
X0175350Y0271169D03*
X0172201Y0271169D03*
X0274201Y0271169D03*
X0277350Y0271169D03*
X0280500Y0271169D03*
X0283650Y0271169D03*
X0286799Y0271169D03*
X0286799Y0279831D03*
X0283650Y0279831D03*
X0280500Y0279831D03*
X0277350Y0279831D03*
X0274201Y0279831D03*
X0274201Y0177831D03*
X0277350Y0177831D03*
X0280500Y0177831D03*
X0283650Y0177831D03*
X0286799Y0177831D03*
X0286799Y0169169D03*
X0283650Y0169169D03*
X0280500Y0169169D03*
X0277350Y0169169D03*
X0274201Y0169169D03*
X0274201Y0075831D03*
X0277350Y0075831D03*
X0280500Y0075831D03*
X0283650Y0075831D03*
X0286799Y0075831D03*
X0286799Y0067169D03*
X0283650Y0067169D03*
X0280500Y0067169D03*
X0277350Y0067169D03*
X0274201Y0067169D03*
D17*
X0265500Y0068154D03*
X0265500Y0074846D03*
X0250500Y0095154D03*
X0250500Y0101846D03*
X0240500Y0101846D03*
X0240500Y0095154D03*
X0208500Y0095154D03*
X0208500Y0101846D03*
X0193500Y0074846D03*
X0193500Y0068154D03*
X0163500Y0068154D03*
X0163500Y0074846D03*
X0148500Y0095154D03*
X0148500Y0101846D03*
X0138500Y0101846D03*
X0138500Y0095154D03*
X0106500Y0095154D03*
X0106500Y0101846D03*
X0091500Y0074846D03*
X0091500Y0068154D03*
X0061500Y0068154D03*
X0061500Y0074846D03*
X0046500Y0095154D03*
X0046500Y0101846D03*
X0036500Y0101846D03*
X0036500Y0095154D03*
X0061500Y0170154D03*
X0061500Y0176846D03*
X0046500Y0197154D03*
X0046500Y0203846D03*
X0036500Y0203846D03*
X0036500Y0197154D03*
X0091500Y0176846D03*
X0091500Y0170154D03*
X0106500Y0197154D03*
X0106500Y0203846D03*
X0138500Y0203846D03*
X0138500Y0197154D03*
X0148500Y0197154D03*
X0148500Y0203846D03*
X0163500Y0176846D03*
X0163500Y0170154D03*
X0193500Y0170154D03*
X0193500Y0176846D03*
X0208500Y0197154D03*
X0208500Y0203846D03*
X0240500Y0203846D03*
X0240500Y0197154D03*
X0250500Y0197154D03*
X0250500Y0203846D03*
X0265500Y0176846D03*
X0265500Y0170154D03*
X0295500Y0170154D03*
X0295500Y0176846D03*
X0310500Y0197154D03*
X0310500Y0203846D03*
X0295500Y0272154D03*
X0295500Y0278846D03*
X0310500Y0299154D03*
X0310500Y0305846D03*
X0265500Y0278846D03*
X0265500Y0272154D03*
X0250500Y0299154D03*
X0250500Y0305846D03*
X0240500Y0305846D03*
X0240500Y0299154D03*
X0208500Y0299154D03*
X0208500Y0305846D03*
X0193500Y0278846D03*
X0193500Y0272154D03*
X0163500Y0272154D03*
X0163500Y0278846D03*
X0148500Y0299154D03*
X0148500Y0305846D03*
X0138500Y0305846D03*
X0138500Y0299154D03*
X0106500Y0299154D03*
X0106500Y0305846D03*
X0091500Y0278846D03*
X0091500Y0272154D03*
X0061500Y0272154D03*
X0061500Y0278846D03*
X0046500Y0299154D03*
X0046500Y0305846D03*
X0036500Y0305846D03*
X0036500Y0299154D03*
X0295500Y0074846D03*
X0295500Y0068154D03*
X0310500Y0095154D03*
X0310500Y0101846D03*
M02*
